<svg width="372" height="373" viewBox="0 0 372 373" fill="none" xmlns="http://www.w3.org/2000/svg">
<path d="M187.011 57L186.028 184.603C186.087 184.603 186.144 184.603 186.198 184.608L193.871 57H187.011ZM171.889 57H164.923L185.609 184.623L185.696 184.614L171.889 57ZM209.157 57L186.401 184.623C186.414 184.625 186.428 184.627 186.441 184.63L216.265 57H209.157ZM149.172 57H141.732L185.514 184.642L149.172 57ZM232.531 57L186.527 184.657L240.298 57H232.531ZM124.445 57H116.075L185.405 184.684L185.449 184.665L124.445 57ZM258.532 57L186.61 184.692L186.659 184.717L267.499 57H258.532ZM96.0206 57H85.9943L185.201 184.795C185.227 184.778 185.253 184.762 185.28 184.746L96.0206 57ZM289.198 57L186.817 184.813C186.844 184.832 186.871 184.851 186.897 184.871L300.22 57H289.198ZM61.1503 57H48.2475L184.943 185.002C184.97 184.977 184.998 184.952 185.027 184.928L61.1503 57ZM327.947 57L187.076 185.021C187.104 185.048 187.132 185.076 187.16 185.107L342.612 57H327.947ZM14.8158 57H0V59.3564L184.718 185.241C184.737 185.217 184.757 185.193 184.777 185.17L14.8158 57ZM187.296 185.262L187.349 185.335L372 75.5931V63.278L187.296 185.262ZM0 86.0239V97.0551L184.587 185.432C184.596 185.416 184.606 185.399 184.617 185.381L0 86.0239ZM187.418 185.447C187.425 185.459 187.431 185.471 187.436 185.483L372 110.578V100.258L187.418 185.447ZM0 119.514V129.1L184.548 185.51L0 119.514ZM187.466 185.561L372 141.059V131.882L187.466 185.561ZM0 149.156V157.928L184.518 185.628C184.518 185.613 184.518 185.599 184.525 185.586L0 149.156ZM187.482 185.634C187.482 185.653 187.49 185.686 187.494 185.733L372 169.057V160.486L187.482 185.634ZM0 176.741V185.169L184.492 185.984C184.492 185.926 184.492 185.872 184.496 185.823L0 176.741ZM187.506 185.999C187.506 186.055 187.506 186.108 187.506 186.157L372 194.419V185.999H187.506ZM184.505 186.289L0 203.763V212.358L184.512 186.353C184.512 186.332 184.512 186.31 184.505 186.286V186.289ZM187.482 186.365C187.482 186.381 187.475 186.399 187.47 186.417L372 221.96V213.213L187.482 186.365ZM0 231.821V241.023L184.533 186.442L0 231.821ZM187.456 186.462L187.446 186.488L372 251.516V241.961L187.456 186.462ZM184.558 186.504L0 262.418V272.773L184.584 186.554C184.574 186.537 184.565 186.52 184.558 186.504ZM187.411 186.56L187.389 186.596L372 284.865V273.88L187.411 186.56ZM184.652 186.663L0 297.576V309.971L184.706 186.734C184.688 186.713 184.669 186.687 184.652 186.663ZM187.292 186.736C187.269 186.765 187.248 186.79 187.227 186.814L358.887 314.998H372V311.369L187.292 186.736ZM184.85 186.901L30.8872 314.998H45.411L184.927 186.976C184.9 186.951 184.874 186.926 184.85 186.901ZM187.057 186.987C187.036 187.007 187.016 187.024 186.997 187.04L312.058 314.998H325.102L187.057 186.987ZM185.104 187.127L72.8962 314.998H83.8367L185.183 187.181L185.104 187.127ZM186.797 187.19L186.72 187.239L276.941 314.998H287.034L186.797 187.19ZM185.335 187.276L105.399 314.998H114.317L185.396 187.305L185.335 187.276ZM186.595 187.306L186.563 187.321L248.361 314.998H256.773L186.595 187.306ZM185.459 187.334L132.475 314.998H140.225L185.499 187.346L185.459 187.334ZM186.489 187.348L223.55 314.998H231.012L186.489 187.348ZM185.553 187.36L156.438 314.998H163.537L185.595 187.366L185.553 187.36ZM186.39 187.367C186.365 187.367 186.339 187.374 186.309 187.377L200.79 315H207.765L186.39 187.367ZM185.832 187.387L178.802 314.998H185.661L185.985 187.391L185.832 187.387Z" fill="url(#paint0_radial_3214_357)"/>
<g clip-path="url(#clip0_3214_357)">
<path d="M136.079 231.043C144.739 239.675 155.662 245.667 167.58 248.324C178.125 250.669 189.232 250.355 199.607 247.316C212.116 243.65 223.092 236.048 231.229 225.867L234.076 228.213C225.456 238.352 214.078 245.857 201.233 249.363C190.822 252.206 179.747 252.407 169.228 250.016C156.58 247.142 144.962 240.527 136.079 231.043Z" fill="url(#paint1_linear_3214_357)"/>
<path d="M142.322 254.335C155.136 261.597 169.74 265.066 184.439 264.338C197.444 263.688 210.256 259.768 221.347 252.912C234.722 244.644 245.063 232.295 251.283 217.855L255.338 219.67C248.543 234.217 237.704 246.584 223.888 254.773C212.691 261.41 199.881 265.189 186.892 265.778C171.276 266.487 155.666 262.517 142.322 254.335Z" fill="url(#paint2_linear_3214_357)"/>
<path d="M124.906 230.305C132.272 239.66 141.744 247.196 152.682 251.911C164.776 257.125 178.273 258.794 191.28 256.819C205.896 254.599 219.582 247.79 230.112 237.371L233.183 240.598C222.014 250.875 207.828 257.475 192.796 259.418C179.811 261.096 166.42 259.296 154.396 254.077C142.613 248.963 132.513 240.654 124.906 230.305Z" fill="url(#paint3_linear_3214_357)"/>
<path d="M264 183.155C263.491 168.399 258.823 154.091 250.536 141.89C243.199 131.099 233.181 122.179 221.565 116.262C207.558 109.128 191.657 106.72 176.135 108.93C175.944 107.457 175.753 105.984 175.563 104.511C191.479 102.739 207.649 105.564 221.821 113.117C233.308 119.236 243.204 128.229 250.484 139.039C259.23 152.035 263.997 167.466 264 183.155Z" fill="url(#paint4_linear_3214_357)"/>
</g>
<path d="M179.583 121.031C167.524 122.942 156.252 128.244 147.076 136.322C138.961 143.473 132.652 152.649 128.97 162.841C124.529 175.133 124.16 188.508 127.542 201.108L123.974 202.027C120.913 189.059 121.595 175.417 126.362 162.948C130.225 152.841 136.606 143.758 144.741 136.655C154.523 128.116 166.706 122.619 179.583 121.031Z" fill="url(#paint5_linear_3214_357)"/>
<path d="M248.996 200.908C251.82 188.993 251.217 176.518 247.259 164.932C243.753 154.684 237.692 145.341 229.695 138.048C220.051 129.255 207.861 123.826 194.959 122.174C195.129 120.953 195.299 119.732 195.469 118.512C208.589 120.6 220.907 126.423 230.59 135.587C238.438 143.015 244.386 152.388 247.84 162.638C251.994 174.963 252.427 188.357 248.996 200.908Z" fill="url(#paint6_linear_3214_357)"/>
<path d="M157.9 112.527C144.49 118.61 133.074 128.382 124.976 140.711C117.817 151.621 113.403 164.308 112.365 177.336C111.114 193.046 114.939 208.712 122.88 222.276L119.024 224.484C111.337 210.391 107.793 194.313 109.368 178.292C110.644 165.307 115.172 152.705 122.37 141.843C131.023 128.786 143.437 118.495 157.9 112.527Z" fill="url(#paint7_linear_3214_357)"/>
<path d="M187.515 112.621C175.639 113.058 163.984 116.275 153.73 122.343C142.392 129.053 133.077 138.992 126.983 150.687C120.134 163.83 117.527 178.93 119.688 193.609L115.278 194.189C113.609 179.077 116.681 163.696 123.997 150.381C130.317 138.879 139.674 129.103 150.975 122.451C162.048 115.936 174.698 112.668 187.515 112.621Z" fill="url(#paint8_linear_3214_357)"/>
<path d="M252.649 210.595C256.762 199.41 258.229 187.372 256.535 175.551C254.66 162.48 249.038 150.058 240.573 139.956C231.06 128.604 218.13 120.443 203.777 116.866L204.919 112.555C219.486 116.753 232.499 125.452 241.993 137.302C250.193 147.539 255.648 159.938 257.483 172.953C259.279 185.707 257.481 198.686 252.649 210.595Z" fill="url(#paint9_linear_3214_357)"/>
<path d="M146.759 136.156C143.821 137.198 141.603 138.812 140.103 141C138.623 143.167 137.884 145.823 137.884 148.969C137.884 150.344 138.03 151.604 138.321 152.75C138.634 153.875 139.061 154.792 139.603 155.5C136.853 155.5 134.832 154.948 133.54 153.844C132.248 152.719 131.603 150.958 131.603 148.562C131.603 145.604 132.498 142.802 134.29 140.156C135.998 137.635 138.321 135.604 141.259 134.062C144.28 132.521 147.54 131.75 151.04 131.75C152.019 131.75 152.873 131.823 153.603 131.969C154.353 132.094 155.186 132.312 156.103 132.625L163.821 166.875L170.978 132.125H177.196L166.759 180H157.915L150.509 148.25L143.196 180H137.134L146.759 136.156ZM183.774 180.375C180.628 180.375 178.201 179.583 176.493 178C174.68 176.312 173.774 173.719 173.774 170.219C173.774 168.906 173.909 167.448 174.18 165.844C174.43 164.24 174.815 162.635 175.336 161.031C175.92 159.24 176.659 157.542 177.555 155.938C178.472 154.333 179.534 152.917 180.743 151.688C183.534 148.854 186.972 147.438 191.055 147.438C193.659 147.438 195.555 148.062 196.743 149.312C197.659 150.292 198.118 151.708 198.118 153.562C198.118 155.375 197.722 157.083 196.93 158.688C196.138 160.271 195.045 161.677 193.649 162.906C192.253 164.115 190.67 165.083 188.899 165.812C187.128 166.521 185.295 166.938 183.399 167.062C183.295 168.146 183.243 169 183.243 169.625C183.243 171.708 183.638 173.146 184.43 173.938C185.118 174.646 186.263 175 187.868 175C190.18 175 192.295 174.375 194.211 173.125C195.024 172.604 195.805 171.99 196.555 171.281C197.305 170.552 198.18 169.635 199.18 168.531H201.368C199.347 171.948 197.024 174.667 194.399 176.688C191.17 179.146 187.628 180.375 183.774 180.375ZM183.899 164C185.086 163.917 186.243 163.573 187.368 162.969C188.493 162.365 189.493 161.573 190.368 160.594C191.243 159.594 191.93 158.479 192.43 157.25C192.93 156 193.18 154.729 193.18 153.438C193.18 152.583 193.055 151.938 192.805 151.5C192.576 151.042 192.17 150.812 191.586 150.812C190.815 150.812 190.034 151.188 189.243 151.938C188.472 152.688 187.722 153.719 186.993 155.031C186.326 156.26 185.722 157.656 185.18 159.219C184.638 160.781 184.211 162.375 183.899 164ZM206.164 180.375C204.122 180.375 202.507 179.771 201.32 178.562C199.987 177.229 199.32 175.281 199.32 172.719C199.32 171.51 199.487 170.115 199.82 168.531L204.164 148H213.382L208.789 169.75C208.664 170.271 208.601 170.812 208.601 171.375C208.601 172.188 208.737 172.833 209.007 173.312C209.32 173.896 209.82 174.188 210.507 174.188C211.674 174.188 212.726 173.656 213.664 172.594C214.414 171.698 215.07 170.344 215.632 168.531L219.976 148H229.195L224.601 169.75C224.372 170.833 224.257 171.604 224.257 172.062C224.257 172.729 224.435 173.25 224.789 173.625C225.143 174 225.695 174.188 226.445 174.188C227.445 174.188 228.424 173.833 229.382 173.125C230.341 172.417 231.247 171.438 232.101 170.188C232.893 169.042 233.622 167.708 234.289 166.188C234.976 164.667 235.56 163.094 236.039 161.469C236.497 159.885 236.851 158.344 237.101 156.844C237.372 155.323 237.507 153.979 237.507 152.812C237.424 153 237.122 153.156 236.601 153.281C236.268 153.385 235.893 153.438 235.476 153.438C234.747 153.438 234.174 153.083 233.757 152.375C233.362 151.771 233.164 151.042 233.164 150.188C233.164 149.146 233.497 148.312 234.164 147.688C234.83 147.042 235.82 146.719 237.132 146.719C238.549 146.719 239.601 147.292 240.289 148.438C240.872 149.396 241.164 150.677 241.164 152.281C241.164 154.052 241.007 155.969 240.695 158.031C240.403 160.094 239.955 162.125 239.351 164.125C237.893 168.875 235.924 172.615 233.445 175.344C230.445 178.698 226.935 180.375 222.914 180.375C220.81 180.375 219.101 179.927 217.789 179.031C216.476 178.135 215.632 176.792 215.257 175C213.903 177.062 212.32 178.531 210.507 179.406C209.216 180.052 207.768 180.375 206.164 180.375ZM131.189 236.094C129.335 236.094 127.991 235.625 127.158 234.688C126.512 233.979 126.189 233.021 126.189 231.812C126.189 230.854 126.335 229.75 126.626 228.5C126.918 227.229 127.345 225.594 127.908 223.594C128.47 221.573 128.887 219.906 129.158 218.594C129.449 217.281 129.595 216.073 129.595 214.969C129.595 213.615 129.314 212.562 128.751 211.812C128.126 211.021 127.126 210.625 125.751 210.625C124.98 210.625 124.272 210.708 123.626 210.875L118.501 235H109.314L118.001 194.281L127.47 193.031L124.345 207.812H124.845C126.116 207.812 127.314 207.479 128.439 206.812C129.564 206.125 130.553 205.208 131.408 204.062C132.199 202.979 132.814 201.781 133.251 200.469C133.71 199.156 133.939 197.885 133.939 196.656C133.939 195.74 133.793 194.875 133.501 194.062C133.23 193.25 132.824 192.542 132.283 191.938C131.053 190.604 129.262 189.938 126.908 189.938C124.303 189.938 121.939 190.292 119.814 191C117.71 191.688 115.897 192.708 114.376 194.062C112.835 195.417 111.658 197.062 110.845 199C110.033 200.938 109.626 203.104 109.626 205.5C109.626 206.833 109.772 207.896 110.064 208.688C110.147 208.958 110.251 209.198 110.376 209.406C110.46 209.552 110.501 209.698 110.501 209.844C108.189 209.844 106.501 209.385 105.439 208.469C104.251 207.469 103.658 205.854 103.658 203.625C103.658 202.229 103.96 200.854 104.564 199.5C105.168 198.125 106.022 196.802 107.126 195.531C108.168 194.323 109.408 193.198 110.845 192.156C112.303 191.094 113.876 190.177 115.564 189.406C119.105 187.802 122.626 187 126.126 187C128.543 187 130.668 187.281 132.501 187.844C134.355 188.385 135.908 189.156 137.158 190.156C138.324 191.094 139.199 192.177 139.783 193.406C140.366 194.615 140.658 195.896 140.658 197.25C140.658 199.292 140.064 201.271 138.876 203.188C137.543 205.312 135.835 206.979 133.751 208.188C135.397 208.688 136.553 209.49 137.22 210.594C137.845 211.656 138.158 212.99 138.158 214.594C138.158 215.781 138.022 217.052 137.751 218.406C137.48 219.74 137.095 221.323 136.595 223.156C136.033 225.198 135.626 226.76 135.376 227.844C135.147 228.906 135.033 229.885 135.033 230.781C135.033 231.781 135.251 232.667 135.689 233.438C136.147 234.188 136.762 234.708 137.533 235C134.97 235.729 132.855 236.094 131.189 236.094ZM151.766 235.25C148.6 235.25 146.152 234.479 144.423 232.938C142.485 231.229 141.516 228.635 141.516 225.156C141.516 223.844 141.652 222.396 141.923 220.812C142.193 219.208 142.61 217.594 143.173 215.969C144.464 212.094 146.308 209 148.704 206.688C151.6 203.854 155.048 202.438 159.048 202.438C164.527 202.438 167.266 205.844 167.266 212.656V212.719C167.391 212.76 167.495 212.781 167.579 212.781H167.954C169.37 212.781 171.048 212.385 172.985 211.594C174.693 210.885 176.308 210 177.829 208.938L178.391 210.688C177.141 212 175.527 213.115 173.548 214.031C171.589 214.948 169.423 215.604 167.048 216C166.798 218.896 166.235 221.542 165.36 223.938C164.485 226.312 163.36 228.354 161.985 230.062C160.631 231.729 159.079 233.01 157.329 233.906C155.579 234.802 153.725 235.25 151.766 235.25ZM154.329 229.5C155.079 229.5 155.839 229.167 156.61 228.5C157.402 227.812 158.141 226.865 158.829 225.656C159.516 224.448 160.11 223.031 160.61 221.406C161.11 219.781 161.485 218.042 161.735 216.188C161.11 216.021 160.662 215.708 160.391 215.25C160.141 214.792 160.016 214.208 160.016 213.5C160.016 212.625 160.193 211.896 160.548 211.312C160.902 210.729 161.391 210.302 162.016 210.031C161.933 208.677 161.714 207.708 161.36 207.125C161.173 206.833 160.933 206.625 160.641 206.5C160.37 206.375 160.016 206.312 159.579 206.312C158.141 206.312 156.735 207.396 155.36 209.562C154.089 211.521 153.048 213.938 152.235 216.812C151.443 219.625 151.048 222.125 151.048 224.312C151.048 225.375 151.1 226.24 151.204 226.906C151.329 227.573 151.527 228.094 151.798 228.469C152.048 228.844 152.37 229.115 152.766 229.281C153.162 229.427 153.683 229.5 154.329 229.5ZM177.531 235.375C175.49 235.375 173.875 234.771 172.688 233.562C171.354 232.229 170.688 230.281 170.688 227.719C170.688 226.51 170.854 225.115 171.188 223.531L175.531 203H184.75L180.156 224.75C180.031 225.396 179.969 226 179.969 226.562C179.969 228.312 180.604 229.188 181.875 229.188C183.042 229.188 184.094 228.656 185.031 227.594C185.781 226.698 186.438 225.344 187 223.531L191.344 203H200.562L195.969 224.75C195.781 225.375 195.688 226.062 195.688 226.812C195.688 227.688 195.896 228.302 196.312 228.656C196.729 229.01 197.396 229.188 198.312 229.188C199.5 229.188 200.562 228.656 201.5 227.594C202.333 226.656 203 225.302 203.5 223.531H206.188C205.042 226.781 203.656 229.354 202.031 231.25C200.656 232.812 199.104 233.938 197.375 234.625C196.104 235.125 194.76 235.375 193.344 235.375C191.51 235.375 190.052 234.865 188.969 233.844C187.885 232.823 187.229 231.312 187 229.312C185.542 231.646 183.896 233.312 182.062 234.312C180.75 235.021 179.24 235.375 177.531 235.375ZM227.234 235.375C224.588 235.375 222.63 234.625 221.359 233.125C220.255 231.833 219.702 230.177 219.702 228.156C219.702 227.198 219.817 226.083 220.046 224.812C220.296 223.542 220.661 221.906 221.14 219.906C221.619 217.865 221.973 216.24 222.202 215.031C222.452 213.802 222.577 212.74 222.577 211.844C222.577 209.656 221.807 208.562 220.265 208.562C219.182 208.562 218.182 209.135 217.265 210.281C216.494 211.26 215.827 212.656 215.265 214.469L210.921 235H201.702L208.484 203H217.702L217.015 206.312C218.265 204.917 219.609 203.938 221.046 203.375C222.109 202.958 223.255 202.75 224.484 202.75C226.65 202.75 228.359 203.312 229.609 204.438C230.942 205.667 231.609 207.51 231.609 209.969C231.609 211.448 231.338 213.375 230.796 215.75C230.65 216.438 230.411 217.469 230.077 218.844C229.473 221.156 229.036 223 228.765 224.375C228.598 225.25 228.515 225.958 228.515 226.5C228.515 227.354 228.702 228.021 229.077 228.5C229.473 228.958 230.14 229.188 231.077 229.188C232.348 229.188 233.421 228.667 234.296 227.625C234.963 226.833 235.682 225.469 236.452 223.531H239.14C237.557 228.219 235.557 231.5 233.14 233.375C231.432 234.708 229.463 235.375 227.234 235.375ZM244.78 235.375C242.342 235.375 240.374 234.615 238.874 233.094C237.124 231.302 236.249 228.635 236.249 225.094C236.249 223.594 236.405 222.01 236.717 220.344C237.009 218.677 237.447 217.031 238.03 215.406C239.363 211.74 241.186 208.781 243.499 206.531C246.165 203.969 249.238 202.688 252.717 202.688C254.447 202.688 255.738 202.99 256.592 203.594C257.467 204.177 257.905 204.958 257.905 205.938V206.188L261.03 191.469L270.499 190.188L263.155 224.75C262.967 225.375 262.874 226.062 262.874 226.812C262.874 227.688 263.082 228.302 263.499 228.656C263.915 229.01 264.582 229.188 265.499 229.188C266.686 229.188 267.749 228.656 268.686 227.594C269.478 226.656 270.145 225.302 270.686 223.531H273.374C272.249 226.74 270.863 229.271 269.217 231.125C267.822 232.667 266.27 233.74 264.561 234.344C263.332 234.781 261.988 235 260.53 235C258.759 235 257.332 234.531 256.249 233.594C255.165 232.656 254.499 231.292 254.249 229.5C253.103 231.229 251.863 232.562 250.53 233.5C248.801 234.75 246.884 235.375 244.78 235.375ZM248.936 229.188C249.395 229.188 249.884 229.073 250.405 228.844C250.947 228.615 251.457 228.292 251.936 227.875C253.061 226.854 253.811 225.521 254.186 223.875V223.531L257.311 208.875C257.165 208.292 256.957 207.823 256.686 207.469C256.249 206.927 255.582 206.656 254.686 206.656C253.832 206.656 252.999 206.938 252.186 207.5C251.395 208.062 250.645 208.844 249.936 209.844C248.686 211.656 247.655 214.021 246.842 216.938C246.467 218.229 246.186 219.51 245.999 220.781C245.811 222.031 245.717 223.167 245.717 224.188C245.717 226.312 246.113 227.75 246.905 228.5C247.176 228.792 247.478 228.979 247.811 229.062C248.145 229.146 248.52 229.188 248.936 229.188Z" fill="url(#paint10_linear_3214_357)"/>
<path d="M146.759 136.156L147.735 136.371L148.122 134.612L146.425 135.214L146.759 136.156ZM140.103 141L139.278 140.434L139.277 140.436L140.103 141ZM138.321 152.75L137.352 152.997L137.355 153.007L137.358 153.018L138.321 152.75ZM139.603 155.5V156.5H141.626L140.397 154.893L139.603 155.5ZM133.54 153.844L132.883 154.598L132.89 154.604L133.54 153.844ZM134.29 140.156L133.462 139.595L133.462 139.596L134.29 140.156ZM141.259 134.062L140.804 133.172L140.794 133.177L141.259 134.062ZM153.603 131.969L153.406 132.949L153.422 132.952L153.438 132.955L153.603 131.969ZM156.103 132.625L157.078 132.405L156.955 131.859L156.425 131.678L156.103 132.625ZM163.821 166.875L162.846 167.095L164.801 167.077L163.821 166.875ZM170.978 132.125V131.125H170.162L169.998 131.923L170.978 132.125ZM177.196 132.125L178.173 132.338L178.438 131.125H177.196V132.125ZM166.759 180V181H167.564L167.736 180.213L166.759 180ZM157.915 180L156.941 180.227L157.121 181H157.915V180ZM150.509 148.25L151.483 148.023L149.534 148.026L150.509 148.25ZM143.196 180V181H143.992L144.171 180.224L143.196 180ZM137.134 180L136.157 179.786L135.89 181H137.134V180ZM146.425 135.214C143.324 136.313 140.917 138.044 139.278 140.434L140.927 141.566C142.288 139.581 144.319 138.083 147.093 137.099L146.425 135.214ZM139.277 140.436C137.663 142.8 136.884 145.663 136.884 148.969H138.884C138.884 145.983 139.584 143.534 140.928 141.564L139.277 140.436ZM136.884 148.969C136.884 150.414 137.037 151.758 137.352 152.997L139.29 152.503C139.022 151.45 138.884 150.274 138.884 148.969H136.884ZM137.358 153.018C137.694 154.23 138.169 155.272 138.808 156.107L140.397 154.893C139.953 154.312 139.573 153.52 139.285 152.482L137.358 153.018ZM139.603 154.5C136.953 154.5 135.218 153.962 134.19 153.084L132.89 154.604C134.446 155.934 136.752 156.5 139.603 156.5V154.5ZM134.197 153.09C133.2 152.221 132.603 150.789 132.603 148.562H130.603C130.603 151.128 131.297 153.216 132.883 154.598L134.197 153.09ZM132.603 148.562C132.603 145.82 133.429 143.211 135.118 140.717L133.462 139.596C131.568 142.393 130.603 145.388 130.603 148.562H132.603ZM135.118 140.717C136.726 138.345 138.919 136.42 141.723 134.948L140.794 133.177C137.724 134.788 135.271 136.926 133.462 139.595L135.118 140.717ZM141.713 134.953C144.589 133.486 147.693 132.75 151.04 132.75V130.75C147.387 130.75 143.97 131.556 140.804 133.172L141.713 134.953ZM151.04 132.75C151.973 132.75 152.758 132.82 153.406 132.949L153.799 130.988C152.988 130.826 152.066 130.75 151.04 130.75V132.75ZM153.438 132.955C154.122 133.069 154.902 133.272 155.78 133.572L156.425 131.678C155.47 131.353 154.583 131.118 153.767 130.982L153.438 132.955ZM155.127 132.845L162.846 167.095L164.797 166.655L157.078 132.405L155.127 132.845ZM164.801 167.077L171.957 132.327L169.998 131.923L162.842 166.673L164.801 167.077ZM170.978 133.125H177.196V131.125H170.978V133.125ZM176.219 131.912L165.782 179.787L167.736 180.213L178.173 132.338L176.219 131.912ZM166.759 179H157.915V181H166.759V179ZM158.889 179.773L151.483 148.023L149.535 148.477L156.941 180.227L158.889 179.773ZM149.534 148.026L142.222 179.776L144.171 180.224L151.483 148.474L149.534 148.026ZM143.196 179H137.134V181H143.196V179ZM138.11 180.214L147.735 136.371L145.782 135.942L136.157 179.786L138.11 180.214ZM176.493 178L175.811 178.732L175.813 178.733L176.493 178ZM174.18 165.844L175.166 166.01L175.168 165.998L174.18 165.844ZM175.336 161.031L174.385 160.722L174.385 160.722L175.336 161.031ZM177.555 155.938L176.687 155.441L176.682 155.45L177.555 155.938ZM180.743 151.688L180.03 150.986L180.029 150.986L180.743 151.688ZM196.743 149.312L197.473 148.629L197.467 148.624L196.743 149.312ZM196.93 158.688L197.824 159.135L197.827 159.13L196.93 158.688ZM193.649 162.906L194.303 163.662L194.31 163.657L193.649 162.906ZM188.899 165.812L189.27 166.741L189.28 166.737L188.899 165.812ZM183.399 167.062L183.333 166.065L182.485 166.121L182.403 166.967L183.399 167.062ZM184.43 173.938L185.148 173.241L185.142 173.236L185.137 173.23L184.43 173.938ZM194.211 173.125L193.672 172.283L193.665 172.287L194.211 173.125ZM196.555 171.281L197.242 172.008L197.247 172.003L197.252 171.998L196.555 171.281ZM199.18 168.531V167.531H198.737L198.439 167.86L199.18 168.531ZM201.368 168.531L202.228 169.04L203.121 167.531H201.368V168.531ZM194.399 176.688L195.004 177.483L195.009 177.48L194.399 176.688ZM183.899 164L182.917 163.811L182.671 165.089L183.969 164.998L183.899 164ZM190.368 160.594L191.113 161.26L191.12 161.252L190.368 160.594ZM192.43 157.25L193.356 157.627L193.358 157.621L192.43 157.25ZM192.805 151.5L191.911 151.947L191.923 151.972L191.937 151.996L192.805 151.5ZM189.243 151.938L188.555 151.211L188.545 151.221L189.243 151.938ZM186.993 155.031L186.118 154.546L186.113 154.554L186.993 155.031ZM183.774 179.375C180.79 179.375 178.639 178.626 177.172 177.267L175.813 178.733C177.763 180.541 180.466 181.375 183.774 181.375V179.375ZM177.174 177.268C175.637 175.837 174.774 173.558 174.774 170.219H172.774C172.774 173.879 173.723 176.788 175.811 178.732L177.174 177.268ZM174.774 170.219C174.774 168.973 174.902 167.572 175.166 166.01L173.194 165.677C172.916 167.324 172.774 168.839 172.774 170.219H174.774ZM175.168 165.998C175.41 164.448 175.782 162.896 176.287 161.34L174.385 160.722C173.849 162.375 173.45 164.031 173.192 165.69L175.168 165.998ZM176.287 161.341C176.851 159.609 177.565 157.971 178.428 156.425L176.682 155.45C175.754 157.112 174.988 158.87 174.385 160.722L176.287 161.341ZM178.423 156.434C179.3 154.899 180.312 153.552 181.456 152.389L180.029 150.986C178.757 152.281 177.643 153.768 176.687 155.441L178.423 156.434ZM181.455 152.389C184.053 149.752 187.231 148.438 191.055 148.438V146.438C186.712 146.438 183.015 147.956 180.03 150.986L181.455 152.389ZM191.055 148.438C193.524 148.438 195.097 149.032 196.018 150.001L197.467 148.624C196.013 147.093 193.794 146.438 191.055 146.438V148.438ZM196.012 149.996C196.699 150.729 197.118 151.864 197.118 153.562H199.118C199.118 151.553 198.62 149.854 197.473 148.629L196.012 149.996ZM197.118 153.562C197.118 155.224 196.756 156.78 196.033 158.245L197.827 159.13C198.687 157.386 199.118 155.526 199.118 153.562H197.118ZM196.036 158.24C195.304 159.703 194.292 161.007 192.988 162.156L194.31 163.657C195.797 162.347 196.972 160.839 197.824 159.135L196.036 158.24ZM192.994 162.15C191.683 163.285 190.193 164.198 188.518 164.888L189.28 166.737C191.146 165.968 192.823 164.944 194.303 163.662L192.994 162.15ZM188.527 164.884C186.854 165.553 185.124 165.947 183.333 166.065L183.465 168.06C185.466 167.928 187.402 167.488 189.27 166.741L188.527 164.884ZM182.403 166.967C182.298 168.062 182.243 168.953 182.243 169.625H184.243C184.243 169.047 184.291 168.229 184.394 167.158L182.403 166.967ZM182.243 169.625C182.243 171.768 182.636 173.558 183.723 174.645L185.137 173.23C184.64 172.734 184.243 171.648 184.243 169.625H182.243ZM183.712 174.634C184.677 175.628 186.155 176 187.868 176V174C186.371 174 185.558 173.664 185.148 173.241L183.712 174.634ZM187.868 176C190.372 176 192.677 175.32 194.758 173.963L193.665 172.287C191.913 173.43 189.988 174 187.868 174V176ZM194.751 173.967C195.619 173.41 196.449 172.756 197.242 172.008L195.868 170.554C195.161 171.223 194.428 171.798 193.672 172.283L194.751 173.967ZM197.252 171.998C198.022 171.25 198.912 170.316 199.921 169.203L198.439 167.86C197.448 168.954 196.588 169.855 195.858 170.564L197.252 171.998ZM199.18 169.531H201.368V167.531H199.18V169.531ZM200.507 168.022C198.538 171.351 196.295 173.966 193.789 175.895L195.009 177.48C197.752 175.368 200.155 172.545 202.228 169.04L200.507 168.022ZM193.793 175.892C190.728 178.225 187.397 179.375 183.774 179.375V181.375C187.859 181.375 191.611 180.067 195.004 177.483L193.793 175.892ZM183.969 164.998C185.307 164.904 186.6 164.516 187.841 163.85L186.894 162.088C185.885 162.63 184.865 162.93 183.829 163.002L183.969 164.998ZM187.841 163.85C189.071 163.189 190.163 162.324 191.113 161.26L189.622 159.927C188.822 160.822 187.914 161.54 186.894 162.088L187.841 163.85ZM191.12 161.252C192.068 160.169 192.814 158.959 193.356 157.627L191.504 156.873C191.046 157.999 190.417 159.019 189.615 159.935L191.12 161.252ZM193.358 157.621C193.904 156.258 194.18 154.862 194.18 153.438H192.18C192.18 154.597 191.956 155.742 191.502 156.879L193.358 157.621ZM194.18 153.438C194.18 152.516 194.05 151.664 193.673 151.004L191.937 151.996C192.06 152.211 192.18 152.651 192.18 153.438H194.18ZM193.699 151.053C193.505 150.664 193.214 150.336 192.82 150.113C192.434 149.896 192.008 149.812 191.586 149.812V151.812C191.748 151.812 191.817 151.844 191.837 151.855C191.85 151.862 191.876 151.878 191.911 151.947L193.699 151.053ZM191.586 149.812C190.47 149.812 189.455 150.359 188.555 151.212L189.93 152.663C190.613 152.016 191.161 151.812 191.586 151.812V149.812ZM188.545 151.221C187.683 152.06 186.878 153.179 186.118 154.546L187.867 155.517C188.566 154.259 189.26 153.315 189.94 152.654L188.545 151.221ZM186.113 154.554C185.417 155.839 184.792 157.286 184.235 158.891L186.125 159.546C186.652 158.026 187.235 156.682 187.872 155.508L186.113 154.554ZM184.235 158.891C183.678 160.499 183.238 162.139 182.917 163.811L184.881 164.189C185.184 162.611 185.599 161.063 186.125 159.546L184.235 158.891ZM201.32 178.562L202.033 177.862L202.027 177.855L201.32 178.562ZM199.82 168.531L198.842 168.324L198.841 168.325L199.82 168.531ZM204.164 148V147H203.353L203.185 147.793L204.164 148ZM213.382 148L214.361 148.207L214.616 147H213.382V148ZM208.789 169.75L209.761 169.983L209.764 169.97L209.767 169.957L208.789 169.75ZM209.007 173.312L209.889 172.84L209.884 172.83L209.878 172.82L209.007 173.312ZM213.664 172.594L214.414 173.255L214.422 173.246L214.431 173.236L213.664 172.594ZM215.632 168.531L216.588 168.828L216.601 168.783L216.611 168.738L215.632 168.531ZM219.976 148V147H219.166L218.998 147.793L219.976 148ZM229.195 148L230.173 148.207L230.428 147H229.195V148ZM224.601 169.75L225.58 169.957L225.58 169.957L224.601 169.75ZM232.101 170.188L231.279 169.619L231.276 169.623L232.101 170.188ZM234.289 166.188L233.377 165.776L233.373 165.786L234.289 166.188ZM236.039 161.469L236.998 161.752L236.999 161.747L236.039 161.469ZM237.101 156.844L236.117 156.668L236.115 156.679L237.101 156.844ZM237.508 152.812H238.508L236.594 152.406L237.508 152.812ZM236.601 153.281L236.368 152.309L236.335 152.317L236.303 152.327L236.601 153.281ZM233.758 152.375L234.619 151.868L234.607 151.847L234.594 151.827L233.758 152.375ZM234.164 147.688L234.848 148.417L234.854 148.411L234.86 148.406L234.164 147.688ZM240.289 148.438L239.431 148.952L239.435 148.957L240.289 148.438ZM240.695 158.031L239.706 157.881L239.705 157.891L240.695 158.031ZM239.351 164.125L240.307 164.418L240.309 164.414L239.351 164.125ZM233.445 175.344L232.705 174.671L232.7 174.677L233.445 175.344ZM215.257 175L216.236 174.795L215.743 172.438L214.422 174.451L215.257 175ZM210.507 179.406L210.073 178.506L210.06 178.512L210.507 179.406ZM206.164 179.375C204.331 179.375 202.995 178.84 202.033 177.862L200.607 179.263C202.02 180.701 203.913 181.375 206.164 181.375V179.375ZM202.027 177.855C200.941 176.769 200.32 175.114 200.32 172.719H198.32C198.32 175.449 199.033 177.689 200.613 179.27L202.027 177.855ZM200.32 172.719C200.32 171.598 200.475 170.274 200.799 168.737L198.841 168.325C198.498 169.955 198.32 171.422 198.32 172.719H200.32ZM200.798 168.738L205.142 148.207L203.185 147.793L198.842 168.324L200.798 168.738ZM204.164 149H213.382V147H204.164V149ZM212.404 147.793L207.81 169.543L209.767 169.957L214.361 148.207L212.404 147.793ZM207.816 169.517C207.672 170.118 207.601 170.738 207.601 171.375H209.601C209.601 170.887 209.655 170.424 209.761 169.983L207.816 169.517ZM207.601 171.375C207.601 172.284 207.75 173.12 208.137 173.805L209.878 172.82C209.723 172.546 209.601 172.091 209.601 171.375H207.601ZM208.126 173.785C208.357 174.215 208.682 174.581 209.113 174.833C209.542 175.083 210.02 175.188 210.507 175.188V173.188C210.307 173.188 210.191 173.146 210.121 173.105C210.052 173.065 209.971 172.993 209.889 172.84L208.126 173.785ZM210.507 175.188C212.022 175.188 213.331 174.483 214.414 173.255L212.914 171.932C212.122 172.83 211.326 173.188 210.507 173.188V175.188ZM214.431 173.236C215.302 172.194 216.007 170.697 216.588 168.828L214.677 168.235C214.133 169.99 213.525 171.201 212.897 171.952L214.431 173.236ZM216.611 168.738L220.955 148.207L218.998 147.793L214.654 168.324L216.611 168.738ZM219.976 149H229.195V147H219.976V149ZM228.217 147.793L223.623 169.543L225.58 169.957L230.173 148.207L228.217 147.793ZM223.623 169.543C223.394 170.626 223.258 171.489 223.258 172.062H225.258C225.258 171.72 225.35 171.041 225.58 169.957L223.623 169.543ZM223.258 172.062C223.258 172.907 223.486 173.702 224.062 174.312L225.516 172.938C225.384 172.798 225.258 172.551 225.258 172.062H223.258ZM224.062 174.312C224.677 174.963 225.546 175.188 226.445 175.188V173.188C225.844 173.188 225.609 173.037 225.516 172.938L224.062 174.312ZM226.445 175.188C227.698 175.188 228.88 174.74 229.977 173.929L228.788 172.321C227.968 172.927 227.192 173.188 226.445 173.188V175.188ZM229.977 173.929C231.046 173.139 232.026 172.07 232.927 170.752L231.276 169.623C230.468 170.805 229.636 171.694 228.788 172.321L229.977 173.929ZM232.924 170.756C233.758 169.549 234.517 168.158 235.205 166.589L233.373 165.786C232.727 167.259 232.028 168.535 231.279 169.619L232.924 170.756ZM235.2 166.599C235.907 165.036 236.506 163.42 236.998 161.752L235.08 161.186C234.613 162.768 234.046 164.297 233.378 165.776L235.2 166.599ZM236.999 161.747C237.468 160.129 237.831 158.55 238.088 157.008L236.115 156.679C235.872 158.138 235.527 159.642 235.078 161.191L236.999 161.747ZM238.086 157.019C238.364 155.458 238.508 154.053 238.508 152.812H236.508C236.508 153.905 236.38 155.188 236.117 156.668L238.086 157.019ZM236.594 152.406C236.643 152.295 236.707 152.229 236.738 152.201C236.769 152.174 236.782 152.17 236.759 152.182C236.737 152.193 236.696 152.212 236.627 152.235C236.56 152.258 236.474 152.283 236.368 152.309L236.835 154.254C237.134 154.182 237.426 154.089 237.678 153.959C237.909 153.839 238.244 153.618 238.421 153.219L236.594 152.406ZM236.303 152.327C236.083 152.396 235.811 152.438 235.476 152.438V154.438C235.975 154.438 236.453 154.375 236.9 154.236L236.303 152.327ZM235.476 152.438C235.152 152.438 234.884 152.317 234.619 151.868L232.896 152.882C233.465 153.849 234.342 154.438 235.476 154.438V152.438ZM234.594 151.827C234.323 151.413 234.164 150.883 234.164 150.188H232.164C232.164 151.2 232.4 152.128 232.921 152.923L234.594 151.827ZM234.164 150.188C234.164 149.38 234.412 148.826 234.848 148.417L233.48 146.958C232.582 147.799 232.164 148.912 232.164 150.188H234.164ZM234.86 148.406C235.274 148.004 235.972 147.719 237.133 147.719V145.719C235.668 145.719 234.387 146.079 233.468 146.969L234.86 148.406ZM237.133 147.719C238.224 147.719 238.937 148.129 239.431 148.952L241.146 147.923C240.265 146.455 238.875 145.719 237.133 145.719V147.719ZM239.435 148.957C239.89 149.706 240.164 150.786 240.164 152.281H242.164C242.164 150.568 241.854 149.086 241.143 147.918L239.435 148.957ZM240.164 152.281C240.164 153.994 240.013 155.86 239.706 157.881L241.684 158.181C242.002 156.077 242.164 154.11 242.164 152.281H240.164ZM239.705 157.891C239.42 159.903 238.983 161.884 238.394 163.836L240.309 164.414C240.927 162.366 241.386 160.284 241.685 158.171L239.705 157.891ZM238.395 163.832C236.966 168.487 235.057 172.082 232.705 174.671L234.185 176.016C236.791 173.147 238.82 169.263 240.307 164.418L238.395 163.832ZM232.7 174.677C229.864 177.847 226.614 179.375 222.914 179.375V181.375C227.255 181.375 231.026 179.549 234.19 176.01L232.7 174.677ZM222.914 179.375C220.947 179.375 219.453 178.956 218.352 178.205L217.225 179.857C218.75 180.898 220.673 181.375 222.914 181.375V179.375ZM218.352 178.205C217.286 177.477 216.567 176.375 216.236 174.795L214.279 175.205C214.698 177.208 215.667 178.794 217.225 179.857L218.352 178.205ZM214.422 174.451C213.144 176.396 211.689 177.725 210.073 178.506L210.942 180.307C212.951 179.337 214.662 177.729 216.093 175.549L214.422 174.451ZM210.06 178.512C208.922 179.081 207.63 179.375 206.164 179.375V181.375C207.906 181.375 209.509 181.023 210.955 180.301L210.06 178.512ZM127.158 234.688L127.905 234.023L127.896 234.014L127.158 234.688ZM126.626 228.5L127.6 228.727L127.601 228.724L126.626 228.5ZM127.908 223.594L128.87 223.864L128.871 223.862L127.908 223.594ZM129.158 218.594L128.181 218.377L128.18 218.384L128.178 218.392L129.158 218.594ZM128.751 211.812L129.551 211.213L129.544 211.203L129.536 211.193L128.751 211.812ZM123.626 210.875L123.376 209.907L122.777 210.061L122.648 210.667L123.626 210.875ZM118.501 235V236H119.311L119.479 235.208L118.501 235ZM109.314 235L108.336 234.791L108.078 236H109.314V235ZM118.001 194.281L117.87 193.29L117.171 193.382L117.023 194.073L118.001 194.281ZM127.47 193.031L128.448 193.238L128.741 191.855L127.339 192.04L127.47 193.031ZM124.345 207.812L123.367 207.606L123.111 208.812H124.345V207.812ZM128.439 206.812L128.949 207.673L128.96 207.666L128.439 206.812ZM131.408 204.062L132.209 204.66L132.215 204.653L131.408 204.062ZM133.251 200.469L132.307 200.139L132.305 200.146L132.303 200.153L133.251 200.469ZM133.501 194.062L132.553 194.379L132.556 194.39L132.56 194.4L133.501 194.062ZM132.283 191.938L133.027 191.27L133.018 191.26L132.283 191.938ZM119.814 191L120.124 191.951L120.13 191.949L119.814 191ZM114.376 194.062L115.036 194.814L115.041 194.809L114.376 194.062ZM110.064 208.688L111.02 208.393L111.012 208.367L111.002 208.342L110.064 208.688ZM110.376 209.406L111.244 208.91L111.239 208.901L111.234 208.892L110.376 209.406ZM110.501 209.844V210.844H111.501V209.844H110.501ZM105.439 208.469L106.092 207.712L106.083 207.704L105.439 208.469ZM104.564 199.5L105.477 199.907L105.479 199.902L104.564 199.5ZM107.126 195.531L107.881 196.187L107.884 196.184L107.126 195.531ZM110.845 192.156L111.432 192.966L111.434 192.964L110.845 192.156ZM115.564 189.406L115.151 188.495L115.148 188.497L115.564 189.406ZM132.501 187.844L132.208 188.8L132.221 188.804L132.501 187.844ZM137.158 190.156L137.784 189.377L137.782 189.375L137.158 190.156ZM139.783 193.406L138.879 193.835L138.882 193.841L139.783 193.406ZM138.876 203.188L139.723 203.719L139.726 203.714L138.876 203.188ZM133.751 208.188L133.25 207.322L131.261 208.476L133.461 209.144L133.751 208.188ZM137.22 210.594L138.082 210.087L138.076 210.077L137.22 210.594ZM137.751 218.406L138.731 218.605L138.732 218.602L137.751 218.406ZM136.595 223.156L137.559 223.422L137.56 223.419L136.595 223.156ZM135.376 227.844L134.402 227.619L134.4 227.626L134.399 227.633L135.376 227.844ZM135.689 233.438L134.819 233.931L134.827 233.945L134.835 233.959L135.689 233.438ZM137.533 235L137.806 235.962L140.714 235.134L137.886 234.065L137.533 235ZM131.189 235.094C129.482 235.094 128.473 234.662 127.905 234.023L126.41 235.352C127.509 236.588 129.187 237.094 131.189 237.094V235.094ZM127.896 234.014C127.459 233.534 127.189 232.839 127.189 231.812H125.189C125.189 233.203 125.564 234.424 126.419 235.361L127.896 234.014ZM127.189 231.812C127.189 230.951 127.32 229.926 127.6 228.727L125.652 228.273C125.349 229.574 125.189 230.757 125.189 231.812H127.189ZM127.601 228.724C127.887 227.475 128.31 225.857 128.87 223.864L126.945 223.323C126.38 225.331 125.948 226.983 125.652 228.276L127.601 228.724ZM128.871 223.862C129.436 221.83 129.86 220.139 130.137 218.796L128.178 218.392C127.914 219.673 127.504 221.316 126.944 223.326L128.871 223.862ZM130.134 218.811C130.438 217.442 130.595 216.16 130.595 214.969H128.595C128.595 215.986 128.46 217.121 128.181 218.377L130.134 218.811ZM130.595 214.969C130.595 213.491 130.29 212.197 129.551 211.213L127.951 212.412C128.338 212.928 128.595 213.738 128.595 214.969H130.595ZM129.536 211.193C128.659 210.081 127.314 209.625 125.751 209.625V211.625C126.939 211.625 127.594 211.96 127.966 212.432L129.536 211.193ZM125.751 209.625C124.909 209.625 124.115 209.716 123.376 209.907L123.876 211.843C124.429 211.701 125.052 211.625 125.751 211.625V209.625ZM122.648 210.667L117.523 234.792L119.479 235.208L124.604 211.083L122.648 210.667ZM118.501 234H109.314V236H118.501V234ZM110.292 235.209L118.979 194.49L117.023 194.073L108.336 234.791L110.292 235.209ZM118.132 195.273L127.601 194.023L127.339 192.04L117.87 193.29L118.132 195.273ZM126.492 192.824L123.367 207.606L125.323 208.019L128.448 193.238L126.492 192.824ZM124.345 208.812H124.845V206.812H124.345V208.812ZM124.845 208.812C126.301 208.812 127.674 208.428 128.949 207.673L127.929 205.952C126.954 206.53 125.931 206.812 124.845 206.812V208.812ZM128.96 207.666C130.203 206.906 131.285 205.9 132.209 204.66L130.606 203.465C129.821 204.517 128.925 205.344 127.917 205.959L128.96 207.666ZM132.215 204.653C133.069 203.483 133.731 202.192 134.2 200.785L132.303 200.153C131.897 201.37 131.329 202.475 130.6 203.472L132.215 204.653ZM134.195 200.798C134.686 199.394 134.939 198.011 134.939 196.656H132.939C132.939 197.759 132.733 198.919 132.307 200.139L134.195 200.798ZM134.939 196.656C134.939 195.632 134.775 194.652 134.442 193.725L132.56 194.4C132.81 195.098 132.939 195.848 132.939 196.656H134.939ZM134.45 193.746C134.138 192.811 133.665 191.982 133.027 191.27L131.538 192.605C131.983 193.102 132.323 193.689 132.553 194.379L134.45 193.746ZM133.018 191.26C131.547 189.664 129.453 188.938 126.908 188.938V190.938C129.07 190.938 130.56 191.544 131.547 192.615L133.018 191.26ZM126.908 188.938C124.213 188.938 121.74 189.304 119.498 190.051L120.13 191.949C122.138 191.279 124.394 190.938 126.908 190.938V188.938ZM119.503 190.049C117.28 190.776 115.344 191.862 113.711 193.316L115.041 194.809C116.451 193.554 118.14 192.599 120.124 191.951L119.503 190.049ZM113.716 193.311C112.058 194.768 110.793 196.539 109.923 198.613L111.767 199.387C112.522 197.586 113.611 196.065 115.036 194.814L113.716 193.311ZM109.923 198.613C109.052 200.689 108.626 202.99 108.626 205.5H110.626C110.626 203.218 111.013 201.186 111.767 199.387L109.923 198.613ZM108.626 205.5C108.626 206.891 108.776 208.086 109.125 209.033L111.002 208.342C110.768 207.706 110.626 206.776 110.626 205.5H108.626ZM109.108 208.982C109.211 209.317 109.346 209.633 109.519 209.921L111.234 208.892C111.156 208.763 111.083 208.6 111.02 208.393L109.108 208.982ZM109.508 209.902C109.514 209.913 109.512 209.912 109.508 209.9C109.505 209.887 109.501 209.867 109.501 209.844H111.501C111.501 209.499 111.401 209.184 111.244 208.91L109.508 209.902ZM110.501 208.844C108.284 208.844 106.887 208.398 106.092 207.712L104.786 209.226C106.115 210.373 108.094 210.844 110.501 210.844V208.844ZM106.083 207.704C105.206 206.965 104.658 205.692 104.658 203.625H102.658C102.658 206.016 103.296 207.972 104.795 209.234L106.083 207.704ZM104.658 203.625C104.658 202.378 104.926 201.142 105.477 199.907L103.651 199.093C102.993 200.567 102.658 202.08 102.658 203.625H104.658ZM105.479 199.902C106.038 198.63 106.835 197.391 107.881 196.187L106.371 194.875C105.209 196.213 104.297 197.62 103.648 199.098L105.479 199.902ZM107.884 196.184C108.869 195.041 110.05 193.967 111.432 192.966L110.258 191.347C108.765 192.429 107.466 193.605 106.369 194.878L107.884 196.184ZM111.434 192.964C112.836 191.943 114.351 191.06 115.979 190.316L115.148 188.497C113.401 189.295 111.77 190.245 110.256 191.348L111.434 192.964ZM115.976 190.317C119.403 188.765 122.784 188 126.126 188V186C122.469 186 118.808 186.839 115.151 188.495L115.976 190.317ZM126.126 188C128.468 188 130.491 188.273 132.208 188.8L132.795 186.888C130.845 186.29 128.618 186 126.126 186V188ZM132.221 188.804C133.975 189.316 135.404 190.034 136.533 190.937L137.782 189.375C136.411 188.279 134.736 187.455 132.782 186.884L132.221 188.804ZM136.531 190.936C137.592 191.788 138.367 192.755 138.879 193.835L140.686 192.978C140.032 191.599 139.056 190.399 137.784 189.377L136.531 190.936ZM138.882 193.841C139.399 194.912 139.658 196.045 139.658 197.25H141.658C141.658 195.747 141.332 194.317 140.683 192.972L138.882 193.841ZM139.658 197.25C139.658 199.086 139.126 200.885 138.026 202.661L139.726 203.714C141.001 201.656 141.658 199.497 141.658 197.25H139.658ZM138.029 202.656C136.778 204.649 135.186 206.199 133.25 207.322L134.253 209.053C136.483 207.759 138.307 205.976 139.723 203.719L138.029 202.656ZM133.461 209.144C134.95 209.597 135.862 210.28 136.364 211.111L138.076 210.077C137.244 208.699 135.844 207.778 134.042 207.231L133.461 209.144ZM136.358 211.101C136.869 211.97 137.158 213.115 137.158 214.594H139.158C139.158 212.864 138.821 211.343 138.082 210.087L136.358 211.101ZM137.158 214.594C137.158 215.706 137.031 216.91 136.771 218.21L138.732 218.602C139.014 217.194 139.158 215.857 139.158 214.594H137.158ZM136.771 218.207C136.506 219.512 136.127 221.073 135.63 222.893L137.56 223.419C138.063 221.572 138.455 219.967 138.731 218.605L136.771 218.207ZM135.631 222.891C135.067 224.936 134.657 226.515 134.402 227.619L136.351 228.069C136.596 227.006 136.998 225.46 137.559 223.422L135.631 222.891ZM134.399 227.633C134.158 228.751 134.033 229.801 134.033 230.781H136.033C136.033 229.969 136.137 229.062 136.354 228.055L134.399 227.633ZM134.033 230.781C134.033 231.932 134.286 232.991 134.819 233.931L136.558 232.944C136.217 232.342 136.033 231.631 136.033 230.781H134.033ZM134.835 233.959C135.401 234.885 136.186 235.56 137.179 235.935L137.886 234.065C137.338 233.857 136.893 233.49 136.542 232.916L134.835 233.959ZM137.259 234.038C134.739 234.755 132.725 235.094 131.189 235.094V237.094C132.986 237.094 135.201 236.703 137.806 235.962L137.259 234.038ZM144.423 232.938L145.088 232.191L145.084 232.187L144.423 232.938ZM141.923 220.812L142.908 220.981L142.909 220.979L141.923 220.812ZM143.173 215.969L144.118 216.296L144.121 216.285L143.173 215.969ZM148.704 206.688L149.398 207.407L149.403 207.402L148.704 206.688ZM167.266 212.719H166.266V213.44L166.95 213.667L167.266 212.719ZM172.985 211.594L173.363 212.519L173.368 212.517L172.985 211.594ZM177.829 208.938L178.781 208.631L178.366 207.342L177.256 208.118L177.829 208.938ZM178.391 210.688L179.115 211.377L179.525 210.947L179.343 210.381L178.391 210.688ZM173.548 214.031L173.127 213.124L173.124 213.126L173.548 214.031ZM167.048 216L166.883 215.014L166.118 215.141L166.051 215.914L167.048 216ZM165.36 223.938L166.298 224.283L166.299 224.281L165.36 223.938ZM161.985 230.062L162.761 230.693L162.764 230.69L161.985 230.062ZM156.61 228.5L157.264 229.256L157.266 229.255L156.61 228.5ZM161.735 216.188L162.726 216.321L162.844 215.448L161.993 215.221L161.735 216.188ZM160.391 215.25L159.513 215.729L159.522 215.744L159.53 215.759L160.391 215.25ZM162.016 210.031L162.414 210.949L163.057 210.67L163.014 209.97L162.016 210.031ZM161.36 207.125L162.215 206.606L162.208 206.595L162.201 206.584L161.36 207.125ZM160.641 206.5L160.222 207.408L160.235 207.414L160.247 207.419L160.641 206.5ZM155.36 209.562L156.199 210.107L156.204 210.098L155.36 209.562ZM152.235 216.812L151.273 216.541L151.272 216.542L152.235 216.812ZM151.204 226.906L150.216 227.061L150.218 227.076L150.221 227.091L151.204 226.906ZM151.798 228.469L152.63 227.914L152.619 227.898L152.608 227.883L151.798 228.469ZM152.766 229.281L152.378 230.203L152.399 230.212L152.421 230.22L152.766 229.281ZM151.766 234.25C148.754 234.25 146.576 233.518 145.088 232.191L143.757 233.684C145.727 235.441 148.445 236.25 151.766 236.25V234.25ZM145.084 232.187C143.429 230.729 142.516 228.453 142.516 225.156H140.516C140.516 228.818 141.541 231.73 143.761 233.688L145.084 232.187ZM142.516 225.156C142.516 223.911 142.645 222.521 142.908 220.981L140.937 220.644C140.658 222.271 140.516 223.776 140.516 225.156H142.516ZM142.909 220.979C143.17 219.432 143.572 217.871 144.117 216.296L142.228 215.642C141.648 217.316 141.217 218.984 140.936 220.646L142.909 220.979ZM144.121 216.285C145.373 212.529 147.142 209.585 149.398 207.407L148.009 205.968C145.474 208.415 143.555 211.659 142.224 215.653L144.121 216.285ZM149.403 207.402C152.115 204.749 155.313 203.438 159.048 203.438V201.438C154.782 201.438 151.084 202.959 148.004 205.973L149.403 207.402ZM159.048 203.438C161.568 203.438 163.299 204.21 164.432 205.619C165.599 207.069 166.266 209.358 166.266 212.656H168.266C168.266 209.142 167.564 206.321 165.991 204.365C164.384 202.368 162.006 201.438 159.048 201.438V203.438ZM166.266 212.656V212.719H168.266V212.656H166.266ZM166.95 213.667C167.125 213.726 167.344 213.781 167.579 213.781V211.781C167.599 211.781 167.614 211.783 167.623 211.783C167.631 211.784 167.635 211.785 167.634 211.785C167.633 211.785 167.628 211.784 167.619 211.781C167.61 211.779 167.598 211.775 167.582 211.77L166.95 213.667ZM167.579 213.781H167.954V211.781H167.579V213.781ZM167.954 213.781C169.547 213.781 171.358 213.339 173.363 212.519L172.607 210.668C170.737 211.432 169.194 211.781 167.954 211.781V213.781ZM173.368 212.517C175.143 211.781 176.822 210.861 178.401 209.757L177.256 208.118C175.794 209.139 174.243 209.989 172.602 210.67L173.368 212.517ZM176.877 209.244L177.439 210.994L179.343 210.381L178.781 208.631L176.877 209.244ZM177.667 209.998C176.519 211.203 175.015 212.25 173.127 213.124L173.968 214.939C176.038 213.98 177.763 212.797 179.115 211.377L177.667 209.998ZM173.124 213.126C171.256 214 169.178 214.631 166.883 215.014L167.212 216.986C169.667 216.577 171.922 215.896 173.971 214.937L173.124 213.126ZM166.051 215.914C165.808 218.734 165.262 221.292 164.421 223.594L166.299 224.281C167.208 221.791 167.787 219.058 168.044 216.086L166.051 215.914ZM164.422 223.592C163.578 225.88 162.503 227.824 161.206 229.435L162.764 230.69C164.217 228.885 165.392 226.745 166.298 224.283L164.422 223.592ZM161.209 229.432C159.934 231.001 158.488 232.189 156.873 233.016L157.784 234.796C159.669 233.832 161.327 232.458 162.761 230.693L161.209 229.432ZM156.873 233.016C155.264 233.84 153.565 234.25 151.766 234.25V236.25C153.884 236.25 155.894 235.764 157.784 234.796L156.873 233.016ZM154.329 230.5C155.393 230.5 156.377 230.024 157.264 229.256L155.956 227.744C155.301 228.31 154.764 228.5 154.329 228.5V230.5ZM157.266 229.255C158.165 228.474 158.972 227.427 159.698 226.151L157.96 225.162C157.311 226.302 156.638 227.151 155.954 227.745L157.266 229.255ZM159.698 226.151C160.428 224.867 161.049 223.38 161.566 221.7L159.654 221.112C159.171 222.682 158.604 224.029 157.96 225.162L159.698 226.151ZM161.566 221.7C162.083 220.018 162.469 218.224 162.726 216.321L160.744 216.054C160.501 217.859 160.137 219.545 159.654 221.112L161.566 221.7ZM161.993 215.221C161.563 215.107 161.362 214.927 161.252 214.741L159.53 215.759C159.962 216.49 160.657 216.935 161.477 217.154L161.993 215.221ZM161.269 214.771C161.123 214.503 161.016 214.098 161.016 213.5H159.016C159.016 214.319 159.16 215.081 159.513 215.729L161.269 214.771ZM161.016 213.5C161.016 212.757 161.166 212.22 161.402 211.831L159.693 210.794C159.22 211.572 159.016 212.493 159.016 213.5H161.016ZM161.402 211.831C161.649 211.425 161.979 211.137 162.414 210.949L161.619 209.114C160.803 209.467 160.154 210.034 159.693 210.794L161.402 211.831ZM163.014 209.97C162.929 208.584 162.702 207.408 162.215 206.606L160.505 207.644C160.727 208.009 160.937 208.77 161.018 210.093L163.014 209.97ZM162.201 206.584C161.916 206.141 161.527 205.792 161.035 205.581L160.247 207.419C160.338 207.458 160.429 207.526 160.519 207.666L162.201 206.584ZM161.06 205.592C160.611 205.385 160.099 205.312 159.579 205.312V207.312C159.934 207.312 160.129 207.365 160.222 207.408L161.06 205.592ZM159.579 205.312C157.599 205.312 155.932 206.795 154.516 209.027L156.204 210.098C157.538 207.996 158.684 207.312 159.579 207.312V205.312ZM154.521 209.018C153.183 211.08 152.105 213.595 151.273 216.541L153.197 217.084C153.99 214.28 154.995 211.961 156.199 210.107L154.521 209.018ZM151.272 216.542C150.464 219.415 150.048 222.009 150.048 224.312H152.048C152.048 222.241 152.423 219.835 153.198 217.083L151.272 216.542ZM150.048 224.312C150.048 225.401 150.1 226.323 150.216 227.061L152.192 226.752C152.099 226.157 152.048 225.349 152.048 224.312H150.048ZM150.221 227.091C150.361 227.84 150.599 228.517 150.987 229.054L152.608 227.883C152.454 227.67 152.296 227.306 152.187 226.722L150.221 227.091ZM150.965 229.023C151.319 229.553 151.792 229.956 152.378 230.203L153.154 228.36C152.948 228.273 152.776 228.134 152.63 227.914L150.965 229.023ZM152.421 230.22C152.97 230.422 153.621 230.5 154.329 230.5V228.5C153.745 228.5 153.355 228.432 153.112 228.343L152.421 230.22ZM172.688 233.562L173.401 232.862L173.395 232.855L172.688 233.562ZM171.188 223.531L170.209 223.324L170.209 223.325L171.188 223.531ZM175.531 203V202H174.721L174.553 202.793L175.531 203ZM184.75 203L185.728 203.207L185.983 202H184.75V203ZM180.156 224.75L179.178 224.543L179.176 224.552L179.174 224.56L180.156 224.75ZM185.031 227.594L185.781 228.255L185.79 228.246L185.798 228.236L185.031 227.594ZM187 223.531L187.955 223.828L187.969 223.783L187.978 223.738L187 223.531ZM191.344 203V202H190.533L190.365 202.793L191.344 203ZM200.562 203L201.541 203.207L201.796 202H200.562V203ZM195.969 224.75L196.927 225.037L196.939 224.997L196.947 224.957L195.969 224.75ZM201.5 227.594L200.753 226.929L200.75 226.932L201.5 227.594ZM203.5 223.531V222.531H202.743L202.538 223.26L203.5 223.531ZM206.188 223.531L207.131 223.864L207.6 222.531H206.188V223.531ZM202.031 231.25L202.782 231.911L202.791 231.901L202.031 231.25ZM197.375 234.625L197.741 235.556L197.744 235.554L197.375 234.625ZM187 229.312L187.993 229.199L187.668 226.357L186.152 228.783L187 229.312ZM182.062 234.312L182.537 235.193L182.541 235.19L182.062 234.312ZM177.531 234.375C175.699 234.375 174.363 233.84 173.401 232.862L171.974 234.263C173.387 235.701 175.28 236.375 177.531 236.375V234.375ZM173.395 232.855C172.308 231.769 171.688 230.114 171.688 227.719H169.688C169.688 230.449 170.4 232.689 171.98 234.27L173.395 232.855ZM171.688 227.719C171.688 226.598 171.843 225.274 172.166 223.737L170.209 223.325C169.866 224.955 169.688 226.422 169.688 227.719H171.688ZM172.166 223.738L176.51 203.207L174.553 202.793L170.209 223.324L172.166 223.738ZM175.531 204H184.75V202H175.531V204ZM183.772 202.793L179.178 224.543L181.135 224.957L185.728 203.207L183.772 202.793ZM179.174 224.56C179.039 225.258 178.969 225.927 178.969 226.562H180.969C180.969 226.073 181.023 225.533 181.138 224.94L179.174 224.56ZM178.969 226.562C178.969 227.529 179.139 228.434 179.636 229.119C180.177 229.863 180.983 230.188 181.875 230.188V228.188C181.496 228.188 181.349 228.074 181.254 227.944C181.116 227.753 180.969 227.346 180.969 226.562H178.969ZM181.875 230.188C183.389 230.188 184.698 229.483 185.781 228.255L184.281 226.932C183.489 227.83 182.694 228.188 181.875 228.188V230.188ZM185.798 228.236C186.67 227.194 187.375 225.697 187.955 223.828L186.045 223.235C185.5 224.99 184.893 226.201 184.264 226.952L185.798 228.236ZM187.978 223.738L192.322 203.207L190.365 202.793L186.022 223.324L187.978 223.738ZM191.344 204H200.562V202H191.344V204ZM199.584 202.793L194.99 224.543L196.947 224.957L201.541 203.207L199.584 202.793ZM195.011 224.463C194.792 225.194 194.688 225.979 194.688 226.812H196.688C196.688 226.146 196.771 225.556 196.927 225.037L195.011 224.463ZM194.688 226.812C194.688 227.807 194.92 228.785 195.665 229.418L196.96 227.894C196.872 227.819 196.688 227.568 196.688 226.812H194.688ZM195.665 229.418C196.35 230 197.306 230.188 198.312 230.188V228.188C197.485 228.188 197.109 228.02 196.96 227.894L195.665 229.418ZM198.312 230.188C199.842 230.188 201.163 229.488 202.25 228.255L200.75 226.932C199.962 227.825 199.158 228.188 198.312 228.188V230.188ZM202.247 228.258C203.217 227.167 203.939 225.657 204.462 223.803L202.538 223.26C202.061 224.947 201.45 226.145 200.753 226.929L202.247 228.258ZM203.5 224.531H206.188V222.531H203.5V224.531ZM205.244 223.199C204.125 226.373 202.792 228.825 201.272 230.599L202.791 231.901C204.52 229.883 205.958 227.189 207.131 223.864L205.244 223.199ZM201.281 230.589C199.997 232.048 198.572 233.073 197.006 233.696L197.744 235.554C199.637 234.802 201.315 233.577 202.782 231.911L201.281 230.589ZM197.009 233.694C195.859 234.147 194.64 234.375 193.344 234.375V236.375C194.881 236.375 196.349 236.103 197.741 235.556L197.009 233.694ZM193.344 234.375C191.703 234.375 190.512 233.924 189.655 233.116L188.283 234.572C189.593 235.806 191.318 236.375 193.344 236.375V234.375ZM189.655 233.116C188.795 232.306 188.205 231.047 187.993 229.199L186.007 229.426C186.253 231.578 186.976 233.34 188.283 234.572L189.655 233.116ZM186.152 228.783C184.757 231.015 183.226 232.539 181.584 233.435L182.541 235.19C184.566 234.086 186.327 232.277 187.848 229.842L186.152 228.783ZM181.588 233.432C180.441 234.051 179.098 234.375 177.531 234.375V236.375C179.381 236.375 181.059 235.99 182.537 235.193L181.588 233.432ZM221.359 233.125L222.122 232.479L222.119 232.475L221.359 233.125ZM220.046 224.812L219.065 224.619L219.064 224.627L219.062 224.635L220.046 224.812ZM221.14 219.906L222.112 220.139L222.114 220.135L221.14 219.906ZM222.202 215.031L221.222 214.832L221.22 214.845L222.202 215.031ZM217.265 210.281L216.484 209.657L216.479 209.663L217.265 210.281ZM215.265 214.469L214.31 214.172L214.296 214.217L214.287 214.262L215.265 214.469ZM210.921 235V236H211.732L211.9 235.207L210.921 235ZM201.702 235L200.724 234.793L200.468 236H201.702V235ZM208.484 203V202H207.673L207.505 202.793L208.484 203ZM217.702 203L218.682 203.203L218.931 202H217.702V203ZM217.015 206.312L216.036 206.109L215.281 209.748L217.76 206.98L217.015 206.312ZM221.046 203.375L221.411 204.306L221.411 204.306L221.046 203.375ZM229.609 204.438L230.287 203.702L230.278 203.694L229.609 204.438ZM230.796 215.75L229.821 215.528L229.82 215.535L229.818 215.542L230.796 215.75ZM230.077 218.844L231.045 219.097L231.047 219.088L231.049 219.079L230.077 218.844ZM228.765 224.375L227.784 224.182L227.783 224.188L228.765 224.375ZM229.077 228.5L228.29 229.116L228.305 229.135L228.321 229.154L229.077 228.5ZM234.296 227.625L233.531 226.981L233.531 226.982L234.296 227.625ZM236.452 223.531V222.531H235.774L235.523 223.162L236.452 223.531ZM239.14 223.531L240.087 223.851L240.533 222.531H239.14V223.531ZM233.14 233.375L232.527 232.585L232.525 232.587L233.14 233.375ZM227.234 234.375C224.774 234.375 223.143 233.684 222.122 232.479L220.596 233.771C222.117 235.566 224.402 236.375 227.234 236.375V234.375ZM222.119 232.475C221.198 231.398 220.702 229.986 220.702 228.156H218.702C218.702 230.368 219.311 232.269 220.599 233.775L222.119 232.475ZM220.702 228.156C220.702 227.274 220.808 226.221 221.03 224.99L219.062 224.635C218.826 225.946 218.702 227.122 218.702 228.156H220.702ZM221.027 225.006C221.274 223.753 221.635 222.133 222.112 220.139L220.168 219.673C219.687 221.68 219.319 223.33 219.065 224.619L221.027 225.006ZM222.114 220.135C222.594 218.087 222.952 216.446 223.185 215.218L221.22 214.845C220.995 216.033 220.644 217.642 220.166 219.678L222.114 220.135ZM223.182 215.231C223.441 213.96 223.577 212.827 223.577 211.844H221.577C221.577 212.652 221.464 213.645 221.223 214.832L223.182 215.231ZM223.577 211.844C223.577 210.663 223.375 209.599 222.817 208.807C222.213 207.951 221.304 207.562 220.265 207.562V209.562C220.768 209.562 221.014 209.721 221.182 209.959C221.395 210.261 221.577 210.837 221.577 211.844H223.577ZM220.265 207.562C218.779 207.562 217.519 208.363 216.484 209.657L218.046 210.906C218.844 209.908 219.584 209.562 220.265 209.562V207.562ZM216.479 209.663C215.604 210.775 214.892 212.298 214.31 214.172L216.22 214.765C216.763 213.015 217.384 211.746 218.051 210.9L216.479 209.663ZM214.287 214.262L209.943 234.793L211.9 235.207L216.243 214.676L214.287 214.262ZM210.921 234H201.702V236H210.921V234ZM202.681 235.207L209.462 203.207L207.505 202.793L200.724 234.793L202.681 235.207ZM208.484 204H217.702V202H208.484V204ZM216.723 202.797L216.036 206.109L217.994 206.516L218.682 203.203L216.723 202.797ZM217.76 206.98C218.928 205.676 220.147 204.801 221.411 204.306L220.682 202.444C219.071 203.074 217.602 204.158 216.27 205.645L217.76 206.98ZM221.411 204.306C222.349 203.938 223.37 203.75 224.484 203.75V201.75C223.139 201.75 221.869 201.978 220.681 202.444L221.411 204.306ZM224.484 203.75C226.477 203.75 227.921 204.264 228.94 205.181L230.278 203.694C228.796 202.361 226.824 201.75 224.484 201.75V203.75ZM228.931 205.173C229.994 206.152 230.609 207.686 230.609 209.969H232.609C232.609 207.334 231.891 205.181 230.287 203.702L228.931 205.173ZM230.609 209.969C230.609 211.341 230.356 213.185 229.821 215.528L231.771 215.972C232.32 213.565 232.609 211.555 232.609 209.969H230.609ZM229.818 215.542C229.675 216.215 229.438 217.235 229.106 218.608L231.049 219.079C231.383 217.702 231.626 216.66 231.774 215.958L229.818 215.542ZM229.11 218.591C228.504 220.912 228.06 222.778 227.784 224.182L229.746 224.568C230.011 223.222 230.443 221.401 231.045 219.097L229.11 218.591ZM227.783 224.188C227.611 225.091 227.515 225.868 227.515 226.5H229.515C229.515 226.048 229.586 225.409 229.747 224.562L227.783 224.188ZM227.515 226.5C227.515 227.489 227.731 228.402 228.29 229.116L229.865 227.884C229.674 227.639 229.515 227.219 229.515 226.5H227.515ZM228.321 229.154C228.99 229.929 230.008 230.188 231.077 230.188V228.188C230.272 228.188 229.956 227.988 229.834 227.846L228.321 229.154ZM231.077 230.188C232.667 230.188 234.012 229.518 235.062 228.268L233.531 226.982C232.83 227.815 232.03 228.188 231.077 228.188V230.188ZM235.061 228.269C235.836 227.349 236.603 225.858 237.382 223.901L235.523 223.162C234.76 225.079 234.089 226.318 233.531 226.981L235.061 228.269ZM236.452 224.531H239.14V222.531H236.452V224.531ZM238.193 223.211C236.637 227.817 234.72 230.884 232.527 232.585L233.753 234.165C236.394 232.116 238.477 228.62 240.087 223.851L238.193 223.211ZM232.525 232.587C230.998 233.779 229.247 234.375 227.234 234.375V236.375C229.679 236.375 231.866 235.638 233.755 234.163L232.525 232.587ZM238.874 233.094L238.158 233.792L238.162 233.796L238.874 233.094ZM236.717 220.344L237.7 220.528L237.703 220.516L236.717 220.344ZM238.03 215.406L237.09 215.065L237.089 215.068L238.03 215.406ZM243.499 206.531L242.806 205.81L242.801 205.815L243.499 206.531ZM256.592 203.594L256.015 204.41L256.026 204.418L256.038 204.426L256.592 203.594ZM257.905 206.188H256.905L258.883 206.395L257.905 206.188ZM261.03 191.469L260.896 190.478L260.198 190.572L260.052 191.261L261.03 191.469ZM270.499 190.188L271.477 190.395L271.772 189.006L270.365 189.197L270.499 190.188ZM263.155 224.75L264.113 225.037L264.125 224.998L264.133 224.958L263.155 224.75ZM268.686 227.594L269.436 228.255L269.443 228.247L269.45 228.239L268.686 227.594ZM270.686 223.531V222.531H269.946L269.73 223.239L270.686 223.531ZM273.374 223.531L274.317 223.862L274.784 222.531H273.374V223.531ZM269.217 231.125L269.959 231.796L269.965 231.789L269.217 231.125ZM264.561 234.344L264.228 233.401L264.226 233.402L264.561 234.344ZM254.249 229.5L255.239 229.362L254.874 226.746L253.415 228.948L254.249 229.5ZM250.53 233.5L249.955 232.682L249.944 232.69L250.53 233.5ZM250.405 228.844L250.015 227.923L250.009 227.926L250.002 227.928L250.405 228.844ZM251.936 227.875L252.592 228.63L252.6 228.623L252.608 228.616L251.936 227.875ZM254.186 223.875L255.161 224.097L255.186 223.987V223.875H254.186ZM254.186 223.531L253.208 223.323L253.186 223.426V223.531H254.186ZM257.311 208.875L258.289 209.084L258.338 208.857L258.281 208.632L257.311 208.875ZM256.686 207.469L257.481 206.861L257.473 206.851L257.464 206.84L256.686 207.469ZM252.186 207.5L251.617 206.678L251.607 206.685L252.186 207.5ZM249.936 209.844L249.12 209.266L249.113 209.276L249.936 209.844ZM246.842 216.938L247.803 217.216L247.806 217.206L246.842 216.938ZM245.999 220.781L246.988 220.93L246.988 220.927L245.999 220.781ZM246.905 228.5L247.638 227.82L247.616 227.796L247.593 227.774L246.905 228.5ZM244.78 234.375C242.569 234.375 240.871 233.694 239.586 232.392L238.162 233.796C239.877 235.535 242.116 236.375 244.78 236.375V234.375ZM239.589 232.395C238.086 230.856 237.249 228.483 237.249 225.094H235.249C235.249 228.788 236.162 231.748 238.158 233.792L239.589 232.395ZM237.249 225.094C237.249 223.663 237.398 222.142 237.7 220.528L235.735 220.159C235.412 221.879 235.249 223.525 235.249 225.094H237.249ZM237.703 220.516C237.984 218.907 238.407 217.316 238.971 215.744L237.089 215.068C236.487 216.746 236.034 218.447 235.732 220.171L237.703 220.516ZM238.97 215.748C240.262 212.194 242.012 209.373 244.196 207.248L242.801 205.815C240.361 208.189 238.464 211.285 237.09 215.065L238.97 215.748ZM244.192 207.252C246.685 204.856 249.514 203.688 252.717 203.688V201.688C248.963 201.688 245.646 203.081 242.806 205.81L244.192 207.252ZM252.717 203.688C254.362 203.688 255.408 203.981 256.015 204.41L257.17 202.777C256.069 201.998 254.531 201.688 252.717 201.688V203.688ZM256.038 204.426C256.659 204.84 256.905 205.321 256.905 205.938H258.905C258.905 204.596 258.276 203.514 257.147 202.762L256.038 204.426ZM256.905 205.938V206.188H258.905V205.938H256.905ZM258.883 206.395L262.008 191.676L260.052 191.261L256.927 205.98L258.883 206.395ZM261.164 192.46L270.633 191.178L270.365 189.197L260.896 190.478L261.164 192.46ZM269.521 189.98L262.177 224.542L264.133 224.958L271.477 190.395L269.521 189.98ZM262.197 224.463C261.978 225.194 261.874 225.979 261.874 226.812H263.874C263.874 226.146 263.957 225.556 264.113 225.037L262.197 224.463ZM261.874 226.812C261.874 227.807 262.106 228.785 262.851 229.418L264.146 227.894C264.058 227.819 263.874 227.568 263.874 226.812H261.874ZM262.851 229.418C263.536 230 264.493 230.188 265.499 230.188V228.188C264.671 228.188 264.295 228.02 264.146 227.894L262.851 229.418ZM265.499 230.188C267.029 230.188 268.349 229.488 269.436 228.255L267.936 226.932C267.149 227.825 266.344 228.188 265.499 228.188V230.188ZM269.45 228.239C270.362 227.159 271.08 225.664 271.643 223.824L269.73 223.239C269.21 224.94 268.594 226.153 267.922 226.949L269.45 228.239ZM270.686 224.531H273.374V222.531H270.686V224.531ZM272.43 223.2C271.333 226.329 270.004 228.733 268.47 230.461L269.965 231.789C271.723 229.809 273.164 227.151 274.317 223.862L272.43 223.2ZM268.476 230.454C267.175 231.891 265.758 232.86 264.228 233.401L264.895 235.287C266.781 234.619 268.468 233.442 269.959 231.796L268.476 230.454ZM264.226 233.402C263.116 233.797 261.887 234 260.53 234V236C262.089 236 263.548 235.766 264.897 235.286L264.226 233.402ZM260.53 234C258.941 234 257.765 233.583 256.903 232.838L255.594 234.35C256.9 235.479 258.578 236 260.53 236V234ZM256.903 232.838C256.047 232.097 255.465 230.979 255.239 229.362L253.258 229.638C253.533 231.605 254.284 233.216 255.594 234.35L256.903 232.838ZM253.415 228.948C252.32 230.6 251.163 231.833 249.955 232.682L251.105 234.318C252.564 233.292 253.886 231.858 255.082 230.052L253.415 228.948ZM249.944 232.69C248.383 233.818 246.671 234.375 244.78 234.375V236.375C247.098 236.375 249.219 235.682 251.116 234.31L249.944 232.69ZM248.936 230.188C249.562 230.188 250.19 230.031 250.808 229.759L250.002 227.928C249.579 228.115 249.227 228.188 248.936 228.188V230.188ZM250.795 229.765C251.441 229.491 252.04 229.11 252.592 228.63L251.28 227.12C250.874 227.473 250.453 227.738 250.015 227.923L250.795 229.765ZM252.608 228.616C253.902 227.442 254.746 225.92 255.161 224.097L253.211 223.653C252.876 225.122 252.221 226.266 251.264 227.134L252.608 228.616ZM255.186 223.875V223.531H253.186V223.875H255.186ZM255.164 223.74L258.289 209.084L256.333 208.666L253.208 223.323L255.164 223.74ZM258.281 208.632C258.113 207.96 257.858 207.355 257.481 206.861L255.892 208.076C256.056 208.291 256.217 208.623 256.341 209.118L258.281 208.632ZM257.464 206.84C256.785 205.999 255.79 205.656 254.686 205.656V207.656C255.374 207.656 255.713 207.855 255.908 208.097L257.464 206.84ZM254.686 205.656C253.598 205.656 252.57 206.018 251.617 206.678L252.755 208.322C253.428 207.857 254.066 207.656 254.686 207.656V205.656ZM251.607 206.685C250.703 207.327 249.877 208.197 249.12 209.266L250.752 210.422C251.412 209.491 252.086 208.798 252.765 208.315L251.607 206.685ZM249.113 209.276C247.781 211.207 246.711 213.683 245.879 216.669L247.806 217.206C248.599 214.359 249.591 212.106 250.759 210.411L249.113 209.276ZM245.882 216.659C245.495 217.992 245.204 219.318 245.009 220.635L246.988 220.927C247.169 219.703 247.44 218.466 247.803 217.216L245.882 216.659ZM245.01 220.633C244.817 221.921 244.717 223.107 244.717 224.188H246.717C246.717 223.226 246.806 222.142 246.988 220.93L245.01 220.633ZM244.717 224.188C244.717 226.356 245.105 228.172 246.217 229.226L247.593 227.774C247.122 227.328 246.717 226.269 246.717 224.188H244.717ZM246.172 229.18C246.554 229.591 247.019 229.895 247.569 230.033L248.054 228.092C247.937 228.063 247.798 227.992 247.638 227.82L246.172 229.18ZM247.569 230.033C247.996 230.139 248.454 230.188 248.936 230.188V228.188C248.585 228.188 248.293 228.152 248.054 228.092L247.569 230.033Z" fill="url(#paint11_radial_3214_357)"/>
<defs>
<radialGradient id="paint0_radial_3214_357" cx="0" cy="0" r="1" gradientUnits="userSpaceOnUse" gradientTransform="translate(186 185.999) scale(164.403 152.027)">
<stop offset="0.598958" stop-color="#FABB26" stop-opacity="0.24"/>
<stop offset="0.989583" stop-opacity="0.07"/>
</radialGradient>
<linearGradient id="paint1_linear_3214_357" x1="159.927" y1="255.011" x2="210.518" y2="204.581" gradientUnits="userSpaceOnUse">
<stop stop-color="#563804"/>
<stop offset="0.01" stop-color="#614205"/>
<stop offset="0.06" stop-color="#98710C"/>
<stop offset="0.1" stop-color="#C49711"/>
<stop offset="0.14" stop-color="#E3B215"/>
<stop offset="0.17" stop-color="#F6C217"/>
<stop offset="0.2" stop-color="#FDC818"/>
<stop offset="0.34" stop-color="#BB8501"/>
<stop offset="0.48" stop-color="#FDC818"/>
<stop offset="0.61" stop-color="#E7B210"/>
<stop offset="0.71" stop-color="#C38D04"/>
<stop offset="0.79" stop-color="#FDC818"/>
<stop offset="0.87" stop-color="#C38D04"/>
<stop offset="1" stop-color="#FDC818"/>
</linearGradient>
<linearGradient id="paint2_linear_3214_357" x1="163.679" y1="275.759" x2="237.7" y2="201.973" gradientUnits="userSpaceOnUse">
<stop offset="0.02" stop-color="#B18A3D"/>
<stop offset="0.1" stop-color="#D5B369"/>
<stop offset="0.13" stop-color="#E1C982"/>
<stop offset="0.19" stop-color="#F5EEAB"/>
<stop offset="0.22" stop-color="#FDFCBB"/>
<stop offset="0.33" stop-color="#CFBB70"/>
<stop offset="0.45" stop-color="#B18A3D"/>
<stop offset="0.57" stop-color="#BEA254"/>
<stop offset="0.71" stop-color="#976913"/>
<stop offset="0.77" stop-color="#BA9C4D"/>
<stop offset="0.86" stop-color="#FDFCBB"/>
<stop offset="1" stop-color="#B18A3D"/>
</linearGradient>
<linearGradient id="paint3_linear_3214_357" x1="153.938" y1="260.64" x2="203.782" y2="210.955" gradientUnits="userSpaceOnUse">
<stop offset="0.02" stop-color="#B18A3D"/>
<stop offset="0.1" stop-color="#D5B369"/>
<stop offset="0.13" stop-color="#E1C982"/>
<stop offset="0.19" stop-color="#F5EEAB"/>
<stop offset="0.22" stop-color="#FDFCBB"/>
<stop offset="0.33" stop-color="#CFBB70"/>
<stop offset="0.45" stop-color="#B18A3D"/>
<stop offset="0.57" stop-color="#BEA254"/>
<stop offset="0.71" stop-color="#976913"/>
<stop offset="0.77" stop-color="#BA9C4D"/>
<stop offset="0.86" stop-color="#FDFCBB"/>
<stop offset="1" stop-color="#B18A3D"/>
</linearGradient>
<linearGradient id="paint4_linear_3214_357" x1="215.357" y1="148.273" x2="238.632" y2="125.072" gradientUnits="userSpaceOnUse">
<stop offset="0.02" stop-color="#B18A3D"/>
<stop offset="0.1" stop-color="#D5B369"/>
<stop offset="0.13" stop-color="#E1C982"/>
<stop offset="0.19" stop-color="#F5EEAB"/>
<stop offset="0.22" stop-color="#FDFCBB"/>
<stop offset="0.33" stop-color="#CFBB70"/>
<stop offset="0.45" stop-color="#B18A3D"/>
<stop offset="0.57" stop-color="#BEA254"/>
<stop offset="0.71" stop-color="#976913"/>
<stop offset="0.77" stop-color="#BA9C4D"/>
<stop offset="0.86" stop-color="#FDFCBB"/>
<stop offset="1" stop-color="#B18A3D"/>
</linearGradient>
<linearGradient id="paint5_linear_3214_357" x1="113.482" y1="191.503" x2="181.873" y2="123.329" gradientUnits="userSpaceOnUse">
<stop stop-color="#563804"/>
<stop offset="0.01" stop-color="#614205"/>
<stop offset="0.06" stop-color="#98710C"/>
<stop offset="0.1" stop-color="#C49711"/>
<stop offset="0.14" stop-color="#E3B215"/>
<stop offset="0.17" stop-color="#F6C217"/>
<stop offset="0.2" stop-color="#FDC818"/>
<stop offset="0.34" stop-color="#BB8501"/>
<stop offset="0.48" stop-color="#FDC818"/>
<stop offset="0.61" stop-color="#E7B210"/>
<stop offset="0.71" stop-color="#C38D04"/>
<stop offset="0.79" stop-color="#FDC818"/>
<stop offset="0.87" stop-color="#C38D04"/>
<stop offset="1" stop-color="#FDC818"/>
</linearGradient>
<linearGradient id="paint6_linear_3214_357" x1="215.081" y1="166.885" x2="238.527" y2="143.513" gradientUnits="userSpaceOnUse">
<stop stop-color="#563804"/>
<stop offset="0.01" stop-color="#614205"/>
<stop offset="0.06" stop-color="#98710C"/>
<stop offset="0.1" stop-color="#C49711"/>
<stop offset="0.14" stop-color="#E3B215"/>
<stop offset="0.17" stop-color="#F6C217"/>
<stop offset="0.2" stop-color="#FDC818"/>
<stop offset="0.34" stop-color="#BB8501"/>
<stop offset="0.48" stop-color="#FDC818"/>
<stop offset="0.61" stop-color="#E7B210"/>
<stop offset="0.71" stop-color="#C38D04"/>
<stop offset="0.79" stop-color="#FDC818"/>
<stop offset="0.87" stop-color="#C38D04"/>
<stop offset="1" stop-color="#FDC818"/>
</linearGradient>
<linearGradient id="paint7_linear_3214_357" x1="99.1302" y1="204.529" x2="174.61" y2="129.288" gradientUnits="userSpaceOnUse">
<stop offset="0.02" stop-color="#B18A3D"/>
<stop offset="0.1" stop-color="#D5B369"/>
<stop offset="0.13" stop-color="#E1C982"/>
<stop offset="0.19" stop-color="#F5EEAB"/>
<stop offset="0.22" stop-color="#FDFCBB"/>
<stop offset="0.33" stop-color="#CFBB70"/>
<stop offset="0.45" stop-color="#B18A3D"/>
<stop offset="0.57" stop-color="#BEA254"/>
<stop offset="0.71" stop-color="#976913"/>
<stop offset="0.77" stop-color="#BA9C4D"/>
<stop offset="0.86" stop-color="#FDFCBB"/>
<stop offset="1" stop-color="#B18A3D"/>
</linearGradient>
<linearGradient id="paint8_linear_3214_357" x1="106.467" y1="185.353" x2="183.486" y2="108.579" gradientUnits="userSpaceOnUse">
<stop offset="0.02" stop-color="#B18A3D"/>
<stop offset="0.1" stop-color="#D5B369"/>
<stop offset="0.13" stop-color="#E1C982"/>
<stop offset="0.19" stop-color="#F5EEAB"/>
<stop offset="0.22" stop-color="#FDFCBB"/>
<stop offset="0.33" stop-color="#CFBB70"/>
<stop offset="0.45" stop-color="#B18A3D"/>
<stop offset="0.57" stop-color="#BEA254"/>
<stop offset="0.71" stop-color="#976913"/>
<stop offset="0.77" stop-color="#BA9C4D"/>
<stop offset="0.86" stop-color="#FDFCBB"/>
<stop offset="1" stop-color="#B18A3D"/>
</linearGradient>
<linearGradient id="paint9_linear_3214_357" x1="216.286" y1="174.113" x2="247.891" y2="142.608" gradientUnits="userSpaceOnUse">
<stop offset="0.02" stop-color="#B18A3D"/>
<stop offset="0.1" stop-color="#D5B369"/>
<stop offset="0.13" stop-color="#E1C982"/>
<stop offset="0.19" stop-color="#F5EEAB"/>
<stop offset="0.22" stop-color="#FDFCBB"/>
<stop offset="0.33" stop-color="#CFBB70"/>
<stop offset="0.45" stop-color="#B18A3D"/>
<stop offset="0.57" stop-color="#BEA254"/>
<stop offset="0.71" stop-color="#976913"/>
<stop offset="0.77" stop-color="#BA9C4D"/>
<stop offset="0.86" stop-color="#FDFCBB"/>
<stop offset="1" stop-color="#B18A3D"/>
</linearGradient>
<linearGradient id="paint10_linear_3214_357" x1="187" y1="132" x2="187" y2="242" gradientUnits="userSpaceOnUse">
<stop offset="0.203125" stop-color="#EA240B"/>
<stop offset="1" stop-color="#87262D"/>
</linearGradient>
<radialGradient id="paint11_radial_3214_357" cx="0" cy="0" r="1" gradientUnits="userSpaceOnUse" gradientTransform="translate(187 187) rotate(90) scale(55 98)">
<stop stop-color="#FFE15A"/>
<stop offset="1" stop-color="white"/>
</radialGradient>
<clipPath id="clip0_3214_357">
<rect width="155" height="161.858" fill="white" transform="translate(109 104)"/>
</clipPath>
</defs>
</svg>
