<svg width="658" height="658" viewBox="0 0 658 658" fill="none" xmlns="http://www.w3.org/2000/svg">
<g clip-path="url(#clip0_4047_687)">
<path d="M329.004 573.648C464.118 573.648 573.65 464.116 573.65 329.002C573.65 193.887 464.118 84.3555 329.004 84.3555C193.889 84.3555 84.3574 193.887 84.3574 329.002C84.3574 464.116 193.889 573.648 329.004 573.648Z" fill="black"/>
<path d="M378.188 586.877H332.666L327.756 460.318H306.421L290.323 581.236L243.165 574.69L284.367 459.822L263.883 452.793L200.594 562.121L161.216 540.772L247.491 430.961L227.537 420.424L131.751 507.618L109.308 465.362L208.643 401.939L208.582 384.989L89.7903 429.512L89.247 428.553C87.4227 425.32 71.5198 396.761 75.4838 387.558C75.7804 386.827 76.2484 386.178 76.8484 385.666C77.4484 385.153 78.1628 384.792 78.9313 384.614C89.2806 382.072 202.559 355.471 217.02 352.077L209.038 333.659L55.248 345.558L66.9991 296.635L208.287 313.564L204.739 292.349L72.6064 251.12L98.4158 214.746L226.034 274.24V252.776L115.412 173.631L143.12 137.794L235.264 232.279L233.412 234.083L143.354 141.778L119.081 173.141L228.63 251.475V278.304L99.2878 218.006L76.785 249.718L207.04 290.364L211.419 316.522L68.971 299.472L58.5882 342.707L210.688 330.929L220.635 353.875L219.133 354.23C217.852 354.532 90.5549 384.413 79.5618 387.096C79.1805 387.179 78.8261 387.356 78.5309 387.612C78.2357 387.867 78.009 388.192 77.8716 388.558C75.0411 395.111 85.9202 417.137 90.9574 426.286L211.151 381.247L211.232 403.334L112.709 466.261L132.495 503.459L227.134 417.312L251.435 430.116L165.173 539.974L199.648 558.667L262.743 449.654L287.714 458.226L246.699 572.571L288.117 578.319L304.16 457.729H330.245L335.154 584.288H375.029L349.421 457.179L374.103 448.735L374.559 449.875L425.716 577.896L460.828 557.251L396.009 446.75L406.955 420.095L500.052 531.663L529.973 503.023L439.982 419.284L447.293 394.118L562.141 460.935L584.221 430.196L461.304 384.024V355.759L585.328 376.33L596.321 338.683L465.845 333.532V308.835L591.807 290.243V247.095L461.854 286.38L451.76 262.079L552.201 211.775L537.311 170.385L436.621 246.176L421.631 226.182L506.216 137.828L471.405 113.615L407.747 209.91L384.64 196.67L429.579 91.6552L392.904 71.3792L362.721 194.195L344.256 190.265V189.212L345.014 73.9078L306.112 67.3817L317.863 190.198L295.474 195.946L259.933 87.1546L224.82 98.3758L274.32 205.336L249.02 218.08L190.265 127.411L192.431 126.003L249.919 214.699L270.913 204.149L221.232 96.8332L261.576 83.9352L297.238 192.847L315.14 188.253L303.268 64.2695L347.637 71.7213L346.872 188.172L360.823 191.137L391.193 67.4823L432.859 90.5217L387.92 195.57L406.929 206.463L470.708 109.979L510.173 137.432L424.991 226.39L437.104 242.575L538.551 166.22L555.4 213.07L455.06 263.32L463.343 283.241L594.376 243.621V292.483L468.414 311.096V331.077L599.735 336.255L587.172 379.282L463.893 358.838V382.266L588.286 428.996L562.872 464.383L561.859 463.793L448.855 398.062L442.913 418.519L533.749 503.03L499.851 535.473L407.72 425.045L398.887 446.542L464.369 558.164L424.434 581.639L372.614 451.981L352.399 458.896L378.188 586.877Z" fill="#CF8D2E"/>
<path d="M462.598 124.035L509.159 56.7812C509.159 56.7812 540.864 79.3377 553.796 92.3296L496.945 151.112C496.945 151.112 470.874 129.213 462.598 124.035Z" fill="url(#paint0_linear_4047_687)"/>
<path d="M328.591 479.182C411.76 479.182 479.182 411.76 479.182 328.591C479.182 245.422 411.76 178 328.591 178C245.422 178 178 245.422 178 328.591C178 411.76 245.422 479.182 328.591 479.182Z" fill="url(#paint1_linear_4047_687)"/>
<path d="M263.327 93.2789L240.482 14.7305C240.482 14.7305 207.321 24.9724 191.331 32.9607L227.335 106.425C227.335 106.425 245.888 97.4441 263.327 93.2789Z" fill="#9E090A"/>
<path d="M143.227 60.5785C143.227 60.5785 171.585 42.6233 191.338 32.9648L227.335 106.422C227.335 106.422 204.477 117.154 191.344 126.732L143.227 60.5785Z" fill="url(#paint2_linear_4047_687)"/>
<path d="M100.655 95.7911C100.655 95.7911 127.732 70.7061 143.226 60.5781L191.337 126.732C191.337 126.732 168.606 142.876 157.466 154.567L100.655 95.7911Z" fill="#9E090A"/>
<path d="M64.5371 137.651C64.5371 137.651 82.3985 111.962 100.649 95.7773L157.473 154.56C157.473 154.56 138.357 174.936 132.24 183.595L64.5371 137.651Z" fill="url(#paint3_linear_4047_687)"/>
<path d="M36.6816 183.597C36.6816 183.597 42.7181 173.791 64.5368 137.652L132.24 183.597C132.24 183.597 115.217 208.085 109.019 221.774L36.6816 183.597Z" fill="#9E090A"/>
<path d="M15.4336 238.034C15.4336 238.034 27.0908 200.406 36.6821 183.598L109.02 221.775C109.02 221.775 99.4149 239.549 94.4582 259.148L15.4336 238.034Z" fill="url(#paint4_linear_4047_687)"/>
<path d="M4.74219 291.374C4.74219 291.374 9.15555 260.789 15.4402 238.031L94.4917 259.146C94.4917 259.146 87.7845 274.17 86.0741 299.986L4.74219 291.374Z" fill="#9E090A"/>
<path d="M3.16628 348.447C3.16628 348.447 1.98581 311.242 4.74248 291.375L86.0677 299.987C86.0677 299.987 83.0629 329.673 84.3507 341.948L3.16628 348.447Z" fill="url(#paint5_linear_4047_687)"/>
<path d="M10.9333 402.668L90.3738 383.15C90.3738 383.15 84.3775 360.674 84.3372 341.961L3.17969 348.454C3.17969 348.454 6.54002 385.732 10.9333 402.668Z" fill="#9E090A"/>
<path d="M27.647 454.628L102.902 422.574C102.902 422.574 93.0963 397.174 90.3731 383.129L10.9326 402.667C10.9326 402.667 19.7728 437.229 27.647 454.628Z" fill="url(#paint6_linear_4047_687)"/>
<path d="M52.6252 502.732L121.763 459.041C121.763 459.041 107.812 436.766 102.909 422.594L27.6475 454.628C27.6475 454.628 43.7515 489.364 52.6252 502.732Z" fill="#9E090A"/>
<path d="M86.0673 547.015L146.835 492.297C146.835 492.297 128.772 470.942 121.763 459.043L52.625 502.734C52.625 502.734 69.1449 529.523 86.0673 547.015Z" fill="url(#paint7_linear_4047_687)"/>
<path d="M127.23 585.609L178.151 521.629C178.151 521.629 156.896 503.03 146.828 492.305L86.0605 547.022C86.0605 547.022 111.233 578.459 127.23 585.609Z" fill="#9E090A"/>
<path d="M170.27 614.263L209.937 542.737C209.937 542.737 186.944 529.443 178.158 521.609L127.236 585.59C127.236 585.59 153.287 605.423 170.27 614.263Z" fill="url(#paint8_linear_4047_687)"/>
<path d="M223.042 637.818L249.489 560.424C249.489 560.424 223.659 550.926 209.963 542.75L170.27 614.263C170.27 614.263 201.8 631.346 223.042 637.818Z" fill="#9E090A"/>
<path d="M276.667 651.238L290.826 570.664C290.826 570.664 258.162 563.763 249.463 560.402L223.043 637.817C223.043 637.817 258.424 648.817 276.667 651.238Z" fill="url(#paint9_linear_4047_687)"/>
<path d="M333.906 655.419V573.591C333.906 573.591 311.726 574.469 290.819 570.68L276.66 651.234C276.66 651.234 318.956 656.009 333.906 655.419Z" fill="#9E090A"/>
<path d="M373.365 569.633L389.643 649.811C389.643 649.811 355.235 655.418 333.906 655.445V573.617C333.906 573.617 357.724 573.033 373.365 569.633Z" fill="url(#paint10_linear_4047_687)"/>
<path d="M415.949 557.734L443.536 634.747C443.536 634.747 409.182 646.706 389.644 649.784L373.365 569.633C373.365 569.633 403.092 563.04 415.949 557.734Z" fill="#9E090A"/>
<path d="M490.856 612.525L452.196 540.402C452.196 540.402 428.398 553.528 415.977 557.734L443.563 634.746C443.563 634.746 479.709 619.199 490.856 612.525Z" fill="url(#paint11_linear_4047_687)"/>
<path d="M486.013 516.609L537.927 579.798C537.927 579.798 504.746 605.373 490.856 612.523L452.195 540.4C452.195 540.4 477.166 524.383 486.013 516.609Z" fill="#9E090A"/>
<path d="M515.478 487.348L577.707 540.402C577.707 540.402 549.959 570.732 537.927 579.8L486.013 516.611C486.013 516.611 508.328 496.148 515.478 487.348Z" fill="url(#paint12_linear_4047_687)"/>
<path d="M609.527 495.952L538.954 454.629L515.479 487.327L577.708 540.381C577.708 540.381 604.45 504.779 609.527 495.952Z" fill="#9E090A"/>
<path d="M556.6 418.898L633.525 446.666C633.525 446.666 616.717 484.079 611.66 492.276C606.602 500.472 609.5 495.931 609.5 495.931L538.953 454.628C538.953 454.628 551.958 431.696 556.6 418.898Z" fill="url(#paint13_linear_4047_687)"/>
<path d="M568.774 377.812L649.307 392.119C649.307 392.119 639.099 434.509 633.525 446.669L556.573 418.901C556.573 418.901 566.312 392.253 568.774 377.812Z" fill="#9E090A"/>
<path d="M573.489 337.473H655.317C655.317 337.473 655.411 368.326 649.321 392.116L568.773 377.81C568.773 377.81 573.462 353.704 573.489 337.473Z" fill="url(#paint14_linear_4047_687)"/>
<path d="M571.43 296.023L652.111 282.461C652.111 282.461 656.752 314.884 655.304 337.46H573.475C573.475 337.46 574.502 313.945 571.43 296.023Z" fill="#9E090A"/>
<path d="M562.502 255.802L639.924 229.402C639.924 229.402 649.844 261.973 652.111 282.47L571.429 296.025C571.429 296.025 568.565 272.865 562.502 255.802Z" fill="url(#paint15_linear_4047_687)"/>
<path d="M546.237 216.393L618.675 178.41C618.675 178.41 633.599 206.232 639.937 229.385L562.502 255.798C562.502 255.798 555.607 225.911 546.237 216.393Z" fill="#9E090A"/>
<path d="M522.815 179.713L588.097 130.469C588.097 130.469 613.209 162.885 618.669 178.412L546.23 216.395C546.23 216.395 532.045 190.995 522.815 179.713Z" fill="url(#paint16_linear_4047_687)"/>
<path d="M496.946 151.122L553.797 92.3398C553.797 92.3398 579.868 117.418 588.098 130.47L522.816 179.715C522.816 179.715 503.137 156.783 496.946 151.122Z" fill="#9E090A"/>
<path d="M425.078 103.949L460.365 30.1094C460.365 30.1094 487.268 43.0812 509.16 56.784L462.598 124.037C462.598 124.037 434.669 107.813 425.078 103.949Z" fill="#9E090A"/>
<path d="M386.276 91.0984L407.337 12.0469C407.337 12.0469 444.623 22.6913 460.365 30.096L425.078 103.949L386.276 91.0984Z" fill="url(#paint17_linear_4047_687)"/>
<path d="M345.57 84.9195L350.755 3.3125C350.755 3.3125 397.417 9.12767 407.337 12.0319L386.277 91.0968C386.277 91.0968 357.858 82.5451 345.57 84.9195Z" fill="#9E090A"/>
<path d="M304.716 85.5511L296.386 4.19899C296.386 4.19899 334.664 1.20756 350.755 3.31363L345.57 84.9206C345.57 84.9206 315.602 80.5743 304.716 85.5511Z" fill="#37CB8F"/>
<path d="M240.481 14.7296C240.481 14.7296 278.921 5.26567 296.366 4.19922L304.697 85.5513C304.697 85.5513 277.613 89.0055 263.299 93.278L240.481 14.7296Z" fill="url(#paint18_linear_4047_687)"/>
<path d="M276.627 57.4535C276.426 59.251 276.358 61.0821 276.251 62.8193L261.945 65.6095L261.77 64.7241C263.454 62.2961 265.231 59.7943 266.646 57.3462C268.457 54.2072 270.208 50.7731 269.598 47.6274C269.007 44.589 267.042 43.1 264.306 43.6031C261.723 44.1061 260.516 46.4134 259.792 48.1036L258.752 47.4329L260.395 43.8512C260.924 43.0314 261.613 42.3258 262.419 41.7763C263.225 41.2268 264.134 40.8445 265.09 40.6519C268.531 39.9812 272.019 41.8055 272.77 45.7091C273.38 48.875 272.394 51.2493 269.484 55.6224L265.305 61.8468L272.166 60.5053C274.272 60.0962 274.682 59.9151 275.406 57.2791L276.627 57.4535Z" fill="white"/>
<path d="M284.279 46.8302C284.933 46.3181 285.687 45.948 286.493 45.7437C287.396 45.5311 288.333 45.507 289.246 45.6729C290.158 45.8388 291.027 46.1912 291.797 46.7079C292.568 47.2247 293.223 47.8948 293.723 48.6764C294.223 49.4579 294.556 50.3341 294.702 51.2503C294.937 52.2994 294.96 53.385 294.769 54.4429C294.577 55.5009 294.176 56.5098 293.588 57.4101C293.001 58.3104 292.238 59.0838 291.347 59.6847C290.455 60.2856 289.452 60.7018 288.397 60.9087C283.89 61.7806 279.752 58.8965 278.659 53.2021C277.096 45.1534 282.086 39.7876 285.869 37.6413C287.4 36.8048 288.992 36.0851 290.631 35.4883L291.121 36.6553C289.769 37.2032 288.484 37.903 287.291 38.7413C285.696 39.8377 284.385 41.2986 283.467 43.0027C282.549 44.7069 282.05 46.6053 282.012 48.5406L284.279 46.8302ZM285.319 48.232C284.13 48.5013 283.019 49.0407 282.073 49.8082C282.064 50.683 282.154 51.556 282.341 52.4106C283.206 56.871 285.815 60.0435 288.76 59.4734C291.704 58.9032 291.939 55.6771 291.443 53.2692C290.846 50.1771 288.605 47.5881 285.339 48.2186L285.319 48.232Z" fill="white"/>
<path d="M233.734 57.7693C237.128 57.0047 239.824 58.4401 240.87 61.0358C243.265 66.804 237.208 72.1362 234.894 73.1088C233.568 73.6761 232.092 73.7893 230.695 73.4307C230.427 73.3741 230.179 73.2447 229.979 73.0566C229.779 72.8684 229.635 72.629 229.562 72.3643C229.482 71.8081 229.616 71.2422 229.937 70.7814C230.011 70.6145 230.147 70.4825 230.315 70.4126C230.484 70.3427 230.673 70.3402 230.843 70.4058C232.536 71.0633 234.41 71.08 236.115 70.4527C238.496 69.4601 239.468 66.965 238.06 63.5577C237.843 62.9534 237.502 62.4008 237.06 61.935C236.618 61.4693 236.084 61.1004 235.492 60.852C234.9 60.6035 234.262 60.4808 233.62 60.4917C232.978 60.5025 232.345 60.6467 231.762 60.915C231.019 61.2444 230.324 61.6731 229.696 62.1894L229.025 61.2303C231.775 58.9163 233.593 56.6224 232.553 54.1206C231.654 51.9542 229.709 51.5048 227.858 52.2627C225.906 53.0743 225.088 55.0865 224.746 56.8169L223.673 56.3944L224.344 53.4901C224.659 52.6123 225.154 51.8099 225.798 51.1343C226.441 50.4586 227.218 49.9247 228.08 49.5664V49.5664C231.346 48.225 234.264 49.3182 235.364 51.9676C235.557 52.4214 235.653 52.9106 235.647 53.4038C235.64 53.8971 235.53 54.3834 235.323 54.8316C234.829 55.8147 234.271 56.7646 233.653 57.6755L233.734 57.7693Z" fill="white"/>
<path d="M180.364 86.0062C183.591 84.6647 186.488 85.6842 187.937 88.0586C191.244 93.3573 186.146 99.6085 184.02 100.937C182.804 101.713 181.365 102.064 179.928 101.936C179.654 101.924 179.389 101.837 179.16 101.684C178.932 101.531 178.75 101.319 178.634 101.071C178.467 100.534 178.508 99.9551 178.748 99.4475C178.795 99.2721 178.908 99.1213 179.062 99.0254C179.216 98.9296 179.401 98.8958 179.58 98.931C181.356 99.3005 183.207 99.0096 184.784 98.1127C186.971 96.7713 187.528 94.0884 185.569 90.9897C185.253 90.4322 184.824 89.9464 184.31 89.5632C183.795 89.1799 183.208 88.9075 182.583 88.7632C181.958 88.6188 181.31 88.6056 180.68 88.7245C180.05 88.8434 179.452 89.0917 178.922 89.4537C178.243 89.9009 177.627 90.4379 177.091 91.05L176.293 90.2116C178.634 87.4751 180.049 84.9196 178.614 82.619C177.373 80.6069 175.374 80.5062 173.691 81.5526C171.893 82.6727 171.424 84.7922 171.37 86.5562L170.243 86.3147L170.424 83.3434C170.591 82.4247 170.949 81.5511 171.473 80.7784C171.997 80.0057 172.677 79.351 173.469 78.8563C176.467 76.985 179.506 77.602 181.042 80.03C181.308 80.4465 181.484 80.9143 181.558 81.403C181.632 81.8918 181.602 82.3906 181.471 82.8672C181.145 83.9179 180.75 84.9462 180.291 85.9458L180.364 86.0062Z" fill="white"/>
<path d="M191.069 79.9361C191.96 78.6759 193.023 77.547 194.228 76.5825C198.387 73.9868 202.277 75.3752 203.913 78.0246C205.127 79.9697 205.295 82.3306 204.282 85.2416C203.461 87.5729 201.941 89.5942 199.929 91.0299C198.717 91.7914 197.291 92.1376 195.865 92.0159C195.1 91.8549 194.758 91.7007 194.57 91.2446C194.353 90.7183 194.353 90.1275 194.57 89.6013C194.628 89.4123 194.756 89.2529 194.929 89.1567C195.101 89.0604 195.305 89.0346 195.496 89.0848C197.282 89.4727 199.149 89.1759 200.727 88.2531C203.377 86.5965 203.222 83.5581 201.78 81.2105C200.003 78.3667 197.005 77.5014 193.524 79.6746C192.381 80.4347 191.363 81.3669 190.506 82.438L185.703 71.8137L195.227 65.8711L195.576 65.9918L196.113 68.8491L188.346 73.6582L191.069 79.9361Z" fill="white"/>
<path d="M146.352 129.732L145.635 128.927C148.022 126.485 147.935 126.043 146.117 124.004L136.64 113.366C135.339 111.904 135.097 111.87 133.836 112.856L132.28 114.137L131.677 113.467C133.227 111.504 134.597 109.405 135.768 107.195L148.7 121.696C150.517 123.709 150.967 123.856 153.683 121.75L154.401 122.555L146.352 129.732Z" fill="white"/>
<path d="M166.507 104.781C167.252 106.431 168.131 108.034 168.935 109.597L158.076 119.269L157.473 118.598C157.674 115.654 157.929 112.595 157.868 109.738C157.815 106.116 157.567 102.266 155.434 99.8783C153.301 97.4905 150.92 97.296 148.841 99.1539C146.875 100.904 147.023 103.507 147.264 105.331H146.037L145.621 101.414C145.658 100.437 145.89 99.4763 146.305 98.5903C146.72 97.7043 147.308 96.9106 148.036 96.2564C150.658 93.9223 154.582 93.7076 157.218 96.6722C159.364 99.0801 159.733 101.622 159.465 106.874L159.056 114.359L164.274 109.704C165.87 108.282 166.125 107.907 165.407 105.271L166.507 104.781Z" fill="white"/>
<path d="M118.511 149.236C119.463 150.779 120.523 152.255 121.542 153.697L112.031 164.71L111.361 164.12C111.186 161.169 111.032 158.083 110.603 155.28C110.086 151.698 109.335 147.902 106.914 145.816C104.492 143.73 102.105 143.844 100.28 145.95C98.5566 147.962 99.0395 150.504 99.5157 152.282L98.3017 152.422L97.3828 148.593C97.2909 147.618 97.3962 146.634 97.6923 145.701C97.9885 144.768 98.4694 143.903 99.1065 143.16C101.4 140.477 105.264 139.806 108.269 142.382C110.71 144.494 111.401 146.963 111.817 152.201L112.38 159.68L116.948 154.388C118.35 152.764 118.558 152.375 117.498 149.847L118.511 149.236Z" fill="white"/>
<path d="M111.702 128.598C114.117 125.801 117.739 125.446 120.093 127.451C120.938 128.173 121.487 129.18 121.636 130.282C121.688 131.529 121.614 132.778 121.414 134.011C124.339 132.958 127.216 132.307 129.718 134.467C133.072 137.365 131.992 142.294 129.778 144.85C126.982 148.089 123.071 149.002 120.066 146.386C119.559 145.933 119.157 145.373 118.891 144.747C118.624 144.121 118.499 143.444 118.524 142.764C118.548 141.393 118.7 140.028 118.98 138.686C116.357 139.665 113.822 139.759 111.816 138.015C109.375 135.909 108.926 131.804 111.676 128.625L111.702 128.598ZM112.373 129.812C110.971 131.435 111.535 133.622 112.963 134.856C115.049 136.66 117.397 135.755 120.254 134.541C120.329 133.668 120.19 132.789 119.847 131.982C119.505 131.176 118.97 130.465 118.289 129.913C115.847 127.807 113.52 128.484 112.393 129.792L112.373 129.812ZM129.141 143.696C130.59 142.013 130.483 139.538 128.356 137.7C126.23 135.862 123.427 136.855 120.214 138.203C120.036 139.204 120.112 140.235 120.435 141.199C120.759 142.164 121.319 143.031 122.065 143.723C124.748 146.017 127.605 145.474 129.128 143.723L129.141 143.696Z" fill="white"/>
<path d="M72.3375 228.173C73.8668 229.139 75.4832 229.991 77.0326 230.856L73.3235 244.941L72.4515 244.713C70.9961 242.144 69.5138 239.454 67.8973 237.107C65.8852 234.115 63.5242 231.07 60.4255 230.225C57.3267 229.38 55.2341 230.567 54.5298 233.257C53.8591 235.806 55.4152 237.892 56.6225 239.293L55.5895 239.964L53.081 236.926C52.5718 236.09 52.2358 235.161 52.0929 234.193C51.95 233.225 52.0032 232.239 52.2493 231.292C53.1481 227.898 56.2737 225.557 60.1371 226.597C63.2559 227.422 64.9663 229.333 67.6424 233.861L71.432 240.326L73.2162 233.565C73.7662 231.493 73.7729 231.044 71.7137 229.246L72.3375 228.173Z" fill="white"/>
<path d="M57.0856 212.875C58.3331 208.133 63.2563 206.496 68.1928 207.798C74.9 209.568 78.5488 214.666 79.2195 220.206C79.3894 222.115 79.2946 224.038 78.9378 225.921L77.7573 225.847C78.0715 223.175 77.5567 220.471 76.2825 218.101C75.0084 215.732 73.0365 213.811 70.6342 212.6L71.3049 215.33C71.5069 216.111 71.5069 216.93 71.3049 217.711C71.1081 218.613 70.7271 219.465 70.1859 220.213C69.6447 220.961 68.9549 221.589 68.1597 222.058C67.3644 222.527 66.481 222.827 65.5645 222.939C64.6481 223.05 63.7184 222.972 62.8337 222.708C59.3392 221.789 55.7978 217.812 57.0923 212.922L57.0856 212.875ZM58.199 213.807C57.5283 216.49 60.2112 218.341 62.4044 218.918C65.5501 219.75 68.7562 218.596 69.5678 215.524C69.8587 214.406 69.8191 213.227 69.4537 212.131C68.6668 211.827 67.8628 211.569 67.0458 211.359C63.7526 210.487 59.1447 210.266 58.2191 213.754L58.199 213.807Z" fill="white"/>
<path d="M60.0569 291.704L58.9837 291.57C59.1715 288.162 58.8093 287.881 56.0996 287.545L41.9474 285.815C40.0023 285.573 39.801 285.708 39.5059 287.284L39.184 289.296L38.2852 289.189C38.1554 286.691 37.7984 284.21 37.2188 281.777L56.5021 284.151C59.1849 284.487 59.6343 284.279 60.2849 280.898L61.3581 281.033L60.0569 291.704Z" fill="white"/>
<path d="M39.2648 264.814C39.7142 261.152 42.5514 258.824 45.5965 259.2C46.7002 259.331 47.7172 259.863 48.4537 260.695C49.1909 261.705 49.8246 262.785 50.3452 263.922C52.1897 261.42 54.2153 259.28 57.4951 259.683C61.9018 260.226 63.7395 264.921 63.3237 268.275C62.8005 272.527 60.0774 275.445 56.1134 274.982C55.4393 274.889 54.7939 274.649 54.2235 274.278C53.653 273.907 53.1715 273.414 52.8135 272.836C52.0699 271.684 51.4366 270.464 50.922 269.194C49.2922 271.461 47.2397 272.956 44.5971 272.628C41.3977 272.232 38.7417 269.073 39.2313 264.901L39.2648 264.814ZM40.4856 265.484C40.224 267.611 41.9075 269.12 43.7788 269.348C46.5154 269.683 47.9708 267.631 49.6611 265.028C49.2371 264.261 48.6315 263.609 47.8972 263.129C47.1629 262.65 46.3223 262.358 45.4489 262.278C42.2496 261.883 40.6935 263.747 40.4856 265.464V265.484ZM62.1231 267.705C62.3981 265.498 60.9225 263.499 58.0988 263.157C55.275 262.815 53.5378 265.169 51.6196 268.1C52.0288 269.03 52.6643 269.842 53.468 270.463C54.2716 271.084 55.218 271.494 56.2207 271.655C59.7018 272.084 61.8079 270.025 62.0896 267.725L62.1231 267.705Z" fill="white"/>
<path d="M53.8453 324.266C55.4886 325.017 57.1989 325.608 58.8489 326.278L57.0715 340.719L56.1794 340.612C54.3886 338.264 52.5575 335.796 50.6325 333.69C48.2112 331.007 45.4747 328.27 42.3021 327.881C39.2302 327.506 37.2113 328.921 36.8693 331.684C36.5473 334.3 38.3717 336.158 39.7601 337.372L38.8278 338.17L35.9303 335.487C35.3123 334.728 34.8532 333.852 34.5802 332.912C34.3071 331.972 34.2257 330.986 34.3406 330.014C34.7699 326.533 37.5802 323.783 41.5241 324.266C44.7234 324.662 46.6753 326.332 49.9417 330.45L54.5697 336.346L55.4215 329.411C55.6831 327.284 55.6361 326.835 53.349 325.333L53.8453 324.266Z" fill="white"/>
<path d="M56.1261 305.769C57.7761 306.52 59.4797 307.11 61.1297 307.781L59.3523 322.222L58.4535 322.114C56.6627 319.767 54.8316 317.305 52.9066 315.192C50.4853 312.509 47.7488 309.773 44.5763 309.384C41.4037 308.995 39.4788 310.423 39.1434 313.187C38.8215 315.803 40.6458 317.661 42.0342 318.875L41.1019 319.673L38.2044 316.99C37.5868 316.23 37.1279 315.355 36.8548 314.414C36.5818 313.474 36.5002 312.489 36.6148 311.517C37.044 308.036 39.8544 305.286 43.7982 305.775C46.9976 306.171 48.9494 307.834 52.2158 311.959L56.8438 317.862L57.6956 310.92C57.9572 308.794 57.9102 308.344 55.6231 306.849L56.1261 305.769Z" fill="white"/>
<path d="M61.0491 420.993C60.3784 417.579 61.854 414.916 64.4564 413.924C70.2716 411.643 75.4831 417.807 76.3953 420.134C76.9367 421.472 77.0193 422.951 76.63 424.34C76.5689 424.608 76.4352 424.855 76.2436 425.052C76.052 425.25 75.8098 425.391 75.5435 425.46C74.9853 425.526 74.4228 425.38 73.9673 425.051C73.8036 424.972 73.6758 424.834 73.6098 424.665C73.5439 424.495 73.5446 424.307 73.6118 424.139C74.3048 422.459 74.3597 420.584 73.7661 418.867C72.827 416.466 70.3454 415.439 66.9113 416.788C66.3046 416.996 65.7478 417.328 65.2762 417.762C64.8047 418.197 64.4286 418.725 64.172 419.313C63.9153 419.901 63.7836 420.535 63.7852 421.177C63.7868 421.818 63.9217 422.452 64.1814 423.039C64.4987 423.785 64.9161 424.484 65.4223 425.118L64.4497 425.748C62.1894 422.945 59.9357 421.053 57.4071 422.073C55.2205 422.931 54.7242 424.87 55.4553 426.714C56.2266 428.686 58.2254 429.538 59.9491 429.914L59.5065 430.973L56.6156 430.249C55.7443 429.916 54.9519 429.406 54.289 428.75C53.6261 428.094 53.1073 427.307 52.7657 426.439V426.439C51.4779 423.146 52.645 420.248 55.3077 419.209C55.7657 419.025 56.2571 418.939 56.7504 418.956C57.2437 418.973 57.7278 419.094 58.1717 419.309C59.1445 419.823 60.0832 420.399 60.9821 421.033L61.0491 420.993Z" fill="white"/>
<path d="M69.9968 404.994L68.984 405.39C67.5286 402.305 67.0792 402.231 64.5371 403.224L51.2769 408.422C49.4526 409.14 49.3386 409.347 49.8282 410.877L50.4989 412.782L49.6605 413.11C48.3611 410.966 46.8681 408.945 45.2002 407.074L63.3097 399.984C65.8518 398.985 66.1201 398.602 65.0871 395.323L66.0932 394.934L69.9968 404.994Z" fill="white"/>
<path d="M99.5556 464.158L98.6032 464.675C96.7788 461.791 96.3227 461.77 93.9081 463.072L81.379 469.846C79.6552 470.778 79.568 471 80.2388 472.455L81.1308 474.266L80.3394 474.695C78.785 472.734 77.0564 470.918 75.1748 469.269L92.2514 459.993C94.6593 458.698 94.874 458.283 93.4453 455.157L94.3977 454.641L99.5556 464.158Z" fill="white"/>
<path d="M80.1176 442.214L82.3645 441C84.5913 439.799 84.6986 439.504 83.4846 436.667L84.4169 436.164L89.2595 445.132L88.3272 445.635C86.4425 442.751 86.1004 442.764 83.9206 443.938L81.7005 445.138L86.4626 453.945L85.423 454.508C78.756 453.737 72.1963 452.885 65.8982 451.859L65.0732 450.343L78.4877 443.106L76.7103 439.873L78.367 438.974L80.1176 442.214ZM70.4927 451.202L70.5262 451.269C74.403 451.872 78.7359 452.349 83.6255 452.664L80.0438 446.037L70.4927 451.202Z" fill="white"/>
<path d="M112.092 497.36C113.802 496.77 115.479 496.018 117.109 495.348L125.788 507.079L125.064 507.615C122.146 507.139 119.128 506.616 116.277 506.408C112.669 506.126 108.805 506.026 106.216 507.93C103.627 509.835 103.238 512.189 104.875 514.43C106.438 516.542 109.047 516.636 110.911 516.563L110.784 517.777L106.847 517.83C105.876 517.712 104.938 517.4 104.09 516.913C103.242 516.426 102.501 515.773 101.91 514.993C99.8242 512.169 99.965 508.239 103.164 505.878C105.76 503.96 108.322 503.832 113.527 504.57L120.945 505.663L116.787 500.043C115.512 498.326 115.17 498.031 112.481 498.513L112.092 497.36Z" fill="white"/>
<path d="M90.6549 499.755C87.2007 495.06 91.0641 489.627 95.7323 486.179C100.132 482.926 106.746 480.632 110.227 485.341C113.708 490.049 109.992 495.402 105.216 498.963C100.796 502.23 94.1695 504.503 90.6818 499.795L90.6549 499.755ZM91.7616 499.03C93.7738 501.713 98.7439 499.097 102.929 495.999C107.114 492.9 111.085 488.715 109.14 486.079C107.195 483.443 102.144 486.079 97.9122 489.211C93.6799 492.343 89.7763 496.354 91.7415 499.003L91.7616 499.03Z" fill="white"/>
<path d="M143.763 530.738L143.025 531.536C140.342 529.396 139.933 529.524 138.075 531.536L128.417 541.999C127.076 543.441 127.076 543.676 128.182 544.836L129.611 546.258L129.001 546.929C126.896 545.577 124.674 544.419 122.36 543.468L135.54 529.195C137.398 527.183 137.472 526.727 135.104 524.232L135.842 523.434L143.763 530.738Z" fill="white"/>
<path d="M174.65 572.072C172.061 569.744 171.685 566.706 173.194 564.358C176.548 559.073 184.375 560.938 186.488 562.272C187.716 563.029 188.66 564.17 189.171 565.519C189.279 565.771 189.316 566.048 189.278 566.32C189.24 566.592 189.129 566.848 188.956 567.061C188.547 567.444 188.008 567.66 187.447 567.665C187.269 567.7 187.084 567.665 186.931 567.567C186.777 567.47 186.667 567.318 186.622 567.142C186.18 565.381 185.112 563.84 183.617 562.809C181.431 561.434 178.828 562.078 176.863 565.203C176.498 565.731 176.246 566.328 176.124 566.958C176.002 567.588 176.013 568.236 176.155 568.862C176.296 569.488 176.567 570.077 176.949 570.593C177.33 571.108 177.815 571.539 178.372 571.857C179.07 572.274 179.822 572.595 180.606 572.809L180.197 573.896C176.716 572.984 173.798 572.823 172.356 575.117C171.108 577.129 171.86 578.953 173.543 580.013C175.334 581.14 177.447 580.643 179.063 579.919L179.338 581.032L176.582 582.166C175.682 582.416 174.74 582.475 173.816 582.34C172.892 582.205 172.006 581.878 171.216 581.381C168.224 579.496 167.446 576.472 168.976 574.05C169.233 573.629 169.577 573.267 169.983 572.988C170.39 572.708 170.851 572.517 171.336 572.427C172.425 572.263 173.523 572.169 174.623 572.145L174.65 572.072Z" fill="white"/>
<path d="M158.875 562.138C156.292 559.804 155.917 556.772 157.426 554.425C160.78 549.139 168.6 551.004 170.72 552.339C171.948 553.095 172.891 554.236 173.403 555.585C173.511 555.837 173.548 556.114 173.51 556.386C173.472 556.658 173.361 556.914 173.188 557.128C172.778 557.51 172.24 557.725 171.679 557.731C171.501 557.764 171.317 557.729 171.164 557.632C171.011 557.535 170.9 557.383 170.854 557.208C170.413 555.446 169.344 553.906 167.849 552.875C165.662 551.534 163.06 552.151 161.095 555.27C160.731 555.797 160.48 556.395 160.358 557.025C160.237 557.654 160.247 558.302 160.389 558.928C160.531 559.553 160.801 560.142 161.182 560.658C161.564 561.173 162.048 561.604 162.604 561.923C163.304 562.342 164.057 562.662 164.844 562.876L164.435 563.956C160.954 563.043 158.036 562.882 156.594 565.176C155.34 567.189 156.098 569.006 157.781 570.073C159.572 571.199 161.685 570.703 163.302 569.979L163.57 571.099L160.82 572.232C159.92 572.482 158.978 572.542 158.054 572.406C157.13 572.271 156.245 571.945 155.454 571.448V571.448C152.463 569.563 151.685 566.538 153.207 564.117C153.467 563.696 153.811 563.334 154.219 563.054C154.627 562.775 155.089 562.584 155.575 562.493C156.663 562.332 157.761 562.24 158.861 562.218L158.875 562.138Z" fill="white"/>
<path d="M234.123 583.838L233.667 584.818C230.481 583.59 230.112 583.845 228.972 586.32L222.935 599.231C222.11 601.009 222.171 601.244 223.606 602.001L225.397 602.92L225.015 603.739C222.599 603.092 220.13 602.665 217.637 602.464L225.84 584.851C226.993 582.376 226.926 581.913 223.915 580.257L224.371 579.277L234.123 583.838Z" fill="white"/>
<path d="M207.717 587.164C206.887 587.196 206.06 587.055 205.289 586.748C204.432 586.391 203.659 585.861 203.017 585.191C202.375 584.521 201.878 583.726 201.557 582.856C201.235 581.985 201.097 581.058 201.151 580.131C201.205 579.205 201.449 578.3 201.868 577.472C202.293 576.485 202.912 575.593 203.688 574.849C204.464 574.105 205.381 573.524 206.385 573.14C207.389 572.756 208.46 572.577 209.534 572.614C210.608 572.651 211.664 572.902 212.64 573.354C216.805 575.292 218.448 580.061 215.993 585.313C212.519 592.771 205.362 594.139 201.023 593.683C199.293 593.464 197.582 593.114 195.905 592.637L196.194 591.403C197.607 591.755 199.057 591.944 200.513 591.966C202.447 592.014 204.365 591.6 206.108 590.759C207.85 589.918 209.367 588.674 210.534 587.13L207.717 587.164ZM207.717 585.42C208.838 585.899 210.054 586.112 211.272 586.044C211.802 585.343 212.252 584.585 212.613 583.784C214.531 579.665 214.276 575.56 211.567 574.299C208.857 573.039 206.764 575.507 205.725 577.727C204.383 580.577 204.692 583.991 207.737 585.4L207.717 585.42Z" fill="white"/>
<path d="M265.969 598.274C266.828 596.678 267.566 595.008 268.317 593.418L282.61 596.148L282.436 597.033C279.967 598.663 277.392 600.326 275.158 602.111C272.314 604.351 269.41 606.899 268.813 610.038C268.23 613.077 269.484 615.19 272.247 615.706C274.836 616.202 276.808 614.499 278.109 613.204L278.847 614.184L275.99 616.866C275.192 617.434 274.287 617.835 273.331 618.046C272.375 618.257 271.386 618.273 270.423 618.094C266.975 617.423 264.386 614.452 265.164 610.548C265.768 607.382 267.566 605.545 271.872 602.56L278.062 598.328L271.194 596.986C269.088 596.584 268.639 596.604 266.995 598.784L265.969 598.274Z" fill="white"/>
<path d="M250.462 596.778L250.945 594.269C251.421 591.787 251.26 591.519 248.295 590.661L248.496 589.621L258.504 591.533L258.302 592.572C254.882 592.203 254.667 592.478 254.204 594.913L253.728 597.395L263.561 599.273L263.34 600.44C258.53 605.135 253.728 609.662 248.953 613.901L247.256 613.573L250.106 598.622L246.478 597.952L246.826 596.1L250.462 596.778ZM251.34 609.924H251.414C254.332 607.301 257.451 604.243 260.804 600.654L253.426 599.239L251.34 609.924Z" fill="white"/>
<path d="M317.104 610.325C315.724 611.027 314.252 611.53 312.731 611.82C307.842 612.156 305.072 609.138 304.857 606.005C304.696 603.711 305.662 601.552 307.922 599.459C309.742 597.787 312.032 596.717 314.482 596.394C315.9 596.298 317.312 596.663 318.506 597.433C319.11 597.937 319.331 598.232 319.291 598.728C319.234 599.295 318.954 599.816 318.513 600.177C318.371 600.314 318.181 600.39 317.983 600.39C317.786 600.39 317.596 600.314 317.453 600.177C316.06 598.996 314.274 598.381 312.45 598.453C309.331 598.668 308.03 601.451 308.217 604.181C308.452 607.535 310.692 609.701 314.784 609.419C316.15 609.284 317.487 608.938 318.748 608.393L318.003 620.03L306.802 620.808L306.547 620.54L307.419 617.763L316.534 617.133L317.104 610.325Z" fill="white"/>
<path d="M371.393 596.66L371.467 597.74C368.113 598.203 367.879 598.612 368.073 601.335L369.059 615.541C369.193 617.5 369.354 617.667 370.964 617.66L372.976 617.6L373.037 618.499C370.61 619.101 368.244 619.923 365.967 620.954L364.626 601.57C364.438 598.84 364.156 598.471 360.715 598.478L360.642 597.398L371.393 596.66Z" fill="white"/>
<path d="M349.273 622.113C343.478 622.516 340.956 616.325 340.553 610.537C340.178 605.077 341.801 598.269 347.643 597.867C353.485 597.464 356.02 603.494 356.429 609.41C356.812 614.89 355.162 621.704 349.32 622.107L349.273 622.113ZM349.273 620.772C352.626 620.537 353.082 614.923 352.727 609.725C352.371 604.527 350.969 598.933 347.703 599.154C344.437 599.376 343.947 605.05 344.309 610.302C344.671 615.554 345.952 621 349.252 620.772H349.273Z" fill="white"/>
<path d="M406.539 593.516C406.425 591.712 406.177 589.901 405.976 588.15L419.564 582.945L419.886 583.79C418.646 586.473 417.331 589.243 416.372 591.933C415.131 595.334 414.004 599.029 415.151 601.994C416.298 604.958 418.458 606.018 421.053 605.012C423.515 604.073 424.3 601.585 424.722 599.794L425.863 600.243L424.863 604.053C424.482 604.955 423.924 605.772 423.221 606.454C422.518 607.136 421.685 607.67 420.772 608.024C417.492 609.278 413.749 608.084 412.334 604.375C411.18 601.363 411.737 598.855 413.843 594.046L416.875 587.191L410.349 589.693C408.337 590.457 407.974 590.712 407.719 593.435L406.539 593.516Z" fill="white"/>
<path d="M397.92 606.407C394.506 607.078 391.884 605.556 390.878 602.946C388.644 597.118 394.848 591.953 397.182 591.055C398.523 590.524 400.002 590.453 401.388 590.853C401.654 590.917 401.899 591.053 402.094 591.246C402.289 591.438 402.427 591.681 402.494 591.947C402.557 592.504 402.406 593.065 402.072 593.516C401.993 593.68 401.855 593.807 401.685 593.872C401.516 593.937 401.328 593.934 401.16 593.865C399.487 593.162 397.615 593.093 395.895 593.67C393.48 594.596 392.44 597.064 393.762 600.512C393.966 601.119 394.294 601.678 394.726 602.152C395.157 602.627 395.682 603.006 396.268 603.267C396.853 603.528 397.487 603.665 398.128 603.669C398.769 603.672 399.404 603.543 399.993 603.289C400.746 602.978 401.454 602.567 402.099 602.068L402.723 603.047C399.905 605.287 398.027 607.528 398.993 610.056C399.832 612.249 401.77 612.739 403.621 612.068C405.593 611.31 406.465 609.325 406.854 607.601L407.907 608.051L407.163 610.935C406.826 611.806 406.309 612.596 405.647 613.255C404.985 613.913 404.192 614.425 403.319 614.758V614.758C400.02 616.019 397.129 614.832 396.109 612.156C395.928 611.696 395.845 611.204 395.866 610.711C395.886 610.217 396.01 609.734 396.23 609.291C396.75 608.323 397.333 607.388 397.974 606.495L397.92 606.407Z" fill="white"/>
<path d="M457.427 597.781C454.02 599.203 450.599 597.888 449.419 595.051C448.985 594.026 448.945 592.878 449.305 591.825C449.816 590.685 450.44 589.6 451.169 588.585C448.084 588.223 445.22 587.519 443.945 584.467C442.242 580.369 445.408 576.418 448.526 575.151C452.477 573.507 456.36 574.426 457.917 578.122C458.169 578.754 458.279 579.434 458.239 580.113C458.198 580.793 458.008 581.455 457.682 582.052C457.049 583.267 456.303 584.419 455.455 585.493C458.232 585.788 460.546 586.835 461.565 589.29C462.806 592.268 461.371 596.138 457.487 597.754L457.427 597.781ZM448.614 576.492C446.561 577.344 445.548 579.611 446.601 582.207C447.655 584.802 450.626 585.165 454.107 585.393C454.713 584.577 455.106 583.622 455.249 582.616C455.392 581.61 455.28 580.584 454.925 579.631C453.584 576.392 450.747 575.607 448.6 576.479L448.614 576.492ZM457.387 596.399C459.359 595.574 459.842 593.368 459.11 591.624C458.051 589.075 455.542 588.834 452.443 588.646C451.988 589.395 451.722 590.244 451.668 591.119C451.614 591.995 451.775 592.87 452.135 593.669C453.376 596.647 455.764 597.077 457.353 596.413L457.387 596.399Z" fill="white"/>
<path d="M501.607 558.412C498.427 559.848 495.496 558.969 493.954 556.648C490.446 551.484 495.295 545.038 497.374 543.629C498.553 542.815 499.967 542.409 501.399 542.476C501.675 542.474 501.947 542.55 502.184 542.693C502.42 542.836 502.613 543.042 502.74 543.287C502.928 543.816 502.909 544.396 502.687 544.91C502.646 545.088 502.54 545.244 502.389 545.346C502.239 545.448 502.055 545.489 501.875 545.46C500.085 545.158 498.247 545.518 496.704 546.473C494.571 547.922 494.121 550.565 496.187 553.623C496.524 554.17 496.971 554.64 497.5 555.005C498.029 555.369 498.627 555.62 499.258 555.741C499.888 555.862 500.537 555.851 501.163 555.708C501.789 555.565 502.379 555.294 502.894 554.911C503.556 554.437 504.149 553.875 504.658 553.241L505.483 554.052C503.25 556.876 501.935 559.485 503.471 561.726C504.813 563.671 506.791 563.738 508.435 562.604C510.185 561.417 510.574 559.251 510.561 557.513L511.694 557.715L511.627 560.693C511.498 561.617 511.177 562.505 510.685 563.298C510.193 564.092 509.541 564.774 508.77 565.301V565.301C505.846 567.313 502.734 566.79 501.157 564.415C500.876 564.009 500.683 563.549 500.59 563.064C500.498 562.578 500.508 562.079 500.621 561.598C500.906 560.537 501.26 559.495 501.68 558.479L501.607 558.412Z" fill="white"/>
<path d="M493.143 575.871C488.34 579.131 483.048 575.046 479.789 570.244C476.717 565.716 474.691 559.016 479.54 555.729C484.39 552.443 489.601 556.4 492.955 561.29C496.04 565.837 498.039 572.558 493.19 575.844L493.143 575.871ZM492.472 574.737C495.249 572.853 492.827 567.762 489.903 563.449C486.979 559.136 482.961 555.005 480.251 556.843C477.542 558.68 479.97 563.832 482.934 568.185C485.899 572.538 489.735 576.602 492.465 574.751L492.472 574.737Z" fill="white"/>
<path d="M532.918 511.051L533.689 511.809C531.462 514.398 531.576 514.834 533.521 516.752L543.663 526.752C545.058 528.127 545.292 528.148 546.493 527.081L547.962 525.699L548.633 526.33C547.211 528.387 545.978 530.569 544.95 532.849L531.113 519.22C529.168 517.302 528.712 517.208 526.137 519.488L525.365 518.731L532.918 511.051Z" fill="white"/>
<path d="M519.851 524.324L520.623 525.082C518.396 527.671 518.51 528.107 520.455 530.025L530.596 540.026C531.991 541.401 532.226 541.421 533.427 540.355L534.896 538.98L535.566 539.61C534.149 541.669 532.918 543.851 531.891 546.129L518.061 532.487C516.109 530.569 515.659 530.475 513.084 532.755L512.312 531.997L519.851 524.324Z" fill="white"/>
<path d="M568.392 488.922C566.071 491.517 563.026 491.893 560.679 490.391C555.387 487.077 557.238 479.216 558.566 477.097C559.319 475.869 560.458 474.925 561.805 474.414C562.057 474.304 562.334 474.266 562.606 474.303C562.878 474.339 563.134 474.45 563.348 474.622C563.735 475.03 563.953 475.569 563.958 476.131C563.995 476.31 563.961 476.497 563.864 476.652C563.766 476.807 563.613 476.918 563.435 476.963C561.677 477.409 560.142 478.479 559.116 479.974C557.774 482.161 558.398 484.763 561.524 486.722C562.053 487.085 562.651 487.335 563.282 487.455C563.912 487.575 564.561 487.562 565.186 487.419C565.812 487.275 566.401 487.003 566.916 486.62C567.43 486.236 567.86 485.75 568.177 485.192C568.593 484.492 568.911 483.738 569.123 482.952L570.21 483.361C569.304 486.842 569.156 489.767 571.444 491.202C573.456 492.45 575.28 491.685 576.34 490.002C577.46 488.211 576.957 486.098 576.233 484.488L577.346 484.213L578.48 486.963C578.734 487.862 578.797 488.804 578.665 489.728C578.532 490.652 578.206 491.539 577.708 492.329V492.329C575.83 495.32 572.812 496.112 570.384 494.589C569.964 494.331 569.602 493.987 569.322 493.581C569.043 493.174 568.852 492.713 568.761 492.228C568.596 491.14 568.5 490.042 568.472 488.942L568.392 488.922Z" fill="white"/>
<path d="M560.155 502.069C560.08 502.895 559.836 503.696 559.437 504.424C558.977 505.229 558.355 505.93 557.612 506.484C556.868 507.038 556.018 507.433 555.115 507.644C554.211 507.855 553.274 507.877 552.362 507.71C551.45 507.542 550.582 507.188 549.813 506.67C548.886 506.126 548.078 505.402 547.436 504.541C546.793 503.679 546.33 502.698 546.073 501.655C545.816 500.611 545.771 499.527 545.94 498.466C546.108 497.405 546.488 496.388 547.056 495.476C549.497 491.586 554.434 490.54 559.337 493.611C566.312 497.985 566.782 505.249 565.796 509.501C565.364 511.193 564.806 512.849 564.126 514.458L562.939 514.022C563.462 512.661 563.828 511.246 564.032 509.803C564.318 507.889 564.144 505.934 563.524 504.101C562.905 502.267 561.858 500.608 560.47 499.259L560.155 502.069ZM558.425 501.868C559.039 500.816 559.401 499.636 559.484 498.421C558.85 497.817 558.151 497.286 557.398 496.838C553.549 494.43 549.45 494.155 547.854 496.704C546.258 499.252 548.458 501.62 550.537 502.921C553.22 504.591 556.627 504.725 558.391 501.902L558.425 501.868Z" fill="white"/>
<path d="M582.315 433.32L583.288 433.79C582.034 436.962 582.282 437.338 584.75 438.518L597.601 444.656C599.372 445.501 599.613 445.44 600.385 444.039L601.324 442.254L602.142 442.643C601.471 445.057 601.022 447.526 600.8 450.021L583.268 441.644C580.799 440.464 580.337 440.531 578.653 443.529L577.674 443.059L582.315 433.32Z" fill="white"/>
<path d="M584.032 462.579C582.02 465.416 579.042 466.141 576.54 464.92C570.906 462.237 571.845 454.188 572.925 451.955C573.532 450.647 574.556 449.579 575.836 448.916C576.071 448.774 576.34 448.699 576.614 448.699C576.888 448.699 577.157 448.774 577.392 448.916C577.82 449.279 578.098 449.789 578.17 450.345C578.225 450.519 578.212 450.707 578.134 450.871C578.055 451.036 577.917 451.164 577.748 451.23C576.05 451.873 574.645 453.113 573.797 454.718C572.684 457.046 573.629 459.554 576.963 461.144C577.529 461.444 578.152 461.623 578.792 461.671C579.431 461.718 580.073 461.632 580.678 461.418C581.282 461.205 581.836 460.868 582.304 460.429C582.771 459.99 583.143 459.46 583.395 458.87C583.723 458.128 583.949 457.345 584.066 456.542L585.193 456.824C584.69 460.386 584.871 463.303 587.319 464.47C589.432 465.483 591.182 464.517 592.014 462.72C592.926 460.808 592.188 458.769 591.283 457.253L592.363 456.851L593.805 459.453C594.156 460.317 594.322 461.245 594.295 462.177C594.267 463.109 594.045 464.025 593.644 464.866V464.866C592.121 468.059 589.21 469.179 586.621 467.945C586.173 467.737 585.773 467.438 585.449 467.066C585.124 466.694 584.881 466.257 584.737 465.785C584.443 464.725 584.219 463.648 584.066 462.559L584.032 462.579Z" fill="white"/>
<path d="M595.79 407.616C594.16 406.832 592.436 406.174 590.833 405.497L592.906 391.09L593.798 391.217C595.542 393.605 597.319 396.1 599.197 398.253C601.565 400.99 604.241 403.773 607.407 404.229C610.472 404.672 612.518 403.297 612.913 400.54C613.289 397.938 611.505 396.04 610.143 394.799L611.089 394.021L613.926 396.751C614.528 397.522 614.969 398.406 615.222 399.351C615.476 400.296 615.537 401.282 615.402 402.251C614.899 405.725 612.048 408.415 608.104 407.845C604.911 407.382 602.993 405.678 599.814 401.486L595.293 395.51L594.301 402.432C593.992 404.551 594.032 405.001 596.313 406.55L595.79 407.616Z" fill="white"/>
<path d="M610.62 429.187C603.577 424.492 596.568 419.797 589.432 415.055V411.983L589.908 411.762C595.802 416.908 601.997 421.699 608.46 426.108L609.654 417.832C610.016 415.303 609.721 415.001 607.407 413.68L607.568 412.553C609.788 413.264 611.646 413.714 613.202 414.149L611.069 428.905L610.62 429.187Z" fill="white"/>
<path d="M612.559 355.846C612.971 356.565 613.229 357.362 613.317 358.187C613.399 359.111 613.29 360.042 612.996 360.922C612.702 361.803 612.229 362.613 611.608 363.302C610.987 363.991 610.23 364.545 609.385 364.928C608.54 365.312 607.625 365.517 606.697 365.531C605.625 365.613 604.548 365.479 603.528 365.138C602.509 364.797 601.568 364.255 600.761 363.544C599.955 362.833 599.299 361.968 598.832 360.999C598.366 360.031 598.098 358.979 598.045 357.905C597.83 353.317 601.291 349.642 607.066 349.367C615.289 348.978 619.81 354.679 621.426 358.757C622.038 360.392 622.524 362.071 622.882 363.78L621.654 364.096C621.309 362.681 620.802 361.31 620.145 360.011C619.292 358.27 618.035 356.757 616.48 355.599C614.925 354.441 613.117 353.67 611.204 353.351L612.559 355.846ZM611.023 356.704C610.926 355.491 610.552 354.316 609.93 353.27C609.065 353.136 608.187 353.1 607.314 353.163C602.78 353.377 599.265 355.504 599.406 358.529C599.547 361.554 602.706 362.224 605.154 362.104C608.3 361.956 611.191 360.091 611.03 356.791L611.023 356.704Z" fill="white"/>
<path d="M612.733 304.48C612.297 307.934 610.05 309.98 607.233 310.087C600.995 310.382 598.037 302.877 597.916 300.375C597.841 298.946 598.237 297.533 599.043 296.351C599.188 296.118 599.394 295.929 599.639 295.805C599.884 295.681 600.158 295.626 600.431 295.646C600.974 295.767 601.452 296.085 601.773 296.538C601.903 296.665 601.981 296.837 601.99 297.019C601.998 297.201 601.938 297.379 601.82 297.518C600.629 298.888 599.978 300.645 599.989 302.461C600.11 305.037 602.128 306.801 605.817 306.626C606.459 306.623 607.092 306.487 607.678 306.226C608.264 305.966 608.79 305.587 609.222 305.113C609.653 304.638 609.982 304.08 610.187 303.472C610.392 302.865 610.468 302.221 610.412 301.582C610.353 300.769 610.184 299.968 609.909 299.201L611.036 298.913C612.276 302.266 613.819 304.775 616.522 304.648C618.87 304.54 619.95 302.857 619.876 300.878C619.775 298.765 618.159 297.316 616.643 296.404L617.401 295.539L619.909 297.149C620.627 297.743 621.213 298.481 621.63 299.315C622.047 300.149 622.286 301.06 622.331 301.991C622.492 305.526 620.459 307.894 617.602 308.028C617.109 308.056 616.615 307.981 616.153 307.806C615.691 307.632 615.27 307.362 614.919 307.015C614.163 306.216 613.46 305.369 612.813 304.48H612.733Z" fill="white"/>
<path d="M606.22 326.338L603.671 326.459C601.149 326.579 600.921 326.794 600.787 329.873L599.727 329.926L599.244 319.751L600.297 319.698C600.747 323.112 601.062 323.253 603.537 323.132L606.059 323.011L605.589 313.011L606.776 312.957C612.444 316.539 617.991 320.147 623.223 323.809L623.303 325.533L608.104 326.251L608.279 329.94L606.401 330.027L606.22 326.338ZM618.769 322.414V322.34C615.536 320.114 611.84 317.813 607.568 315.405L607.923 322.931L618.769 322.414Z" fill="white"/>
<path d="M589.05 255.597L590.103 255.349C591.102 258.609 591.538 258.749 594.201 258.126L608.038 254.879C609.95 254.43 610.09 254.209 609.822 252.659L609.44 250.681L610.318 250.473C611.3 252.774 612.49 254.981 613.873 257.066L594.959 261.493C592.276 262.116 591.974 262.452 592.531 265.846L591.478 266.094L589.05 255.597Z" fill="white"/>
<path d="M618.769 281.757C610.506 279.953 602.256 278.121 593.892 276.317L592.799 273.447L593.161 273.071C600.524 275.715 608.039 277.919 615.664 279.671L613.739 271.522C613.155 269.033 612.773 268.839 610.137 268.47L609.875 267.363C612.203 267.216 614.101 266.954 615.704 266.793L619.105 281.341L618.769 281.757Z" fill="white"/>
<path d="M582.268 221.447C580.484 221.762 578.713 222.218 577.003 222.614L570.296 209.702L571.094 209.287C573.904 210.212 576.809 211.205 579.585 211.849C583.107 212.694 586.903 213.391 589.74 211.916C592.577 210.44 593.349 208.173 592.061 205.705C590.847 203.371 588.285 202.874 586.46 202.66L586.776 201.473L590.679 202.036C591.618 202.312 592.492 202.773 593.249 203.393C594.006 204.013 594.63 204.779 595.086 205.645C596.702 208.757 595.944 212.613 592.403 214.451C589.539 215.94 586.99 215.672 581.96 214.123L574.803 211.882L578.029 218.086C579.022 219.985 579.317 220.327 582.054 220.266L582.268 221.447Z" fill="white"/>
<path d="M592.665 223.144C593.857 224.13 594.905 225.279 595.777 226.558C598.044 230.911 596.36 234.66 593.59 236.102C591.578 237.162 589.19 237.142 586.366 235.908C584.107 234.907 582.21 233.235 580.934 231.119C580.268 229.851 580.032 228.401 580.263 226.987C580.484 226.236 580.659 225.907 581.135 225.753C581.677 225.58 582.265 225.629 582.771 225.887C582.954 225.959 583.103 226.099 583.185 226.278C583.267 226.457 583.278 226.66 583.214 226.846C582.685 228.596 582.833 230.48 583.63 232.125C585.072 234.895 588.144 234.982 590.565 233.721C593.537 232.172 594.636 229.247 592.738 225.612C592.069 224.413 591.218 223.325 590.216 222.386L601.183 218.422L606.361 228.375L606.22 228.711L603.329 229.026L599.11 220.924L592.665 223.144Z" fill="white"/>
<path d="M567.311 189.266C565.594 189.842 563.911 190.553 562.274 191.197L553.709 179.419L554.44 178.89C557.351 179.393 560.369 179.943 563.213 180.177C566.822 180.493 570.678 180.627 573.274 178.749C575.87 176.871 576.292 174.516 574.656 172.263C573.113 170.13 570.511 170.016 568.666 170.069L568.807 168.855H572.751C573.719 168.991 574.651 169.319 575.491 169.82C576.331 170.321 577.061 170.985 577.64 171.773C579.706 174.617 579.518 178.541 576.299 180.875C573.69 182.766 571.121 182.887 565.93 182.089L558.552 180.935L562.656 186.596C563.911 188.327 564.253 188.608 566.949 188.166L567.311 189.266Z" fill="white"/>
<path d="M537.719 142.536C536.036 143.206 534.366 144.011 532.796 144.749L523.601 133.467L524.271 132.897C527.209 133.233 530.247 133.615 533.105 133.682C536.727 133.796 540.583 133.682 543.065 131.67C545.547 129.658 545.842 127.277 544.078 125.117C542.414 123.105 539.812 123.105 537.981 123.266L538.048 122.038L541.978 121.797C542.954 121.877 543.904 122.152 544.772 122.606C545.639 123.06 546.407 123.684 547.029 124.44C549.249 127.163 549.289 131.093 546.204 133.602C543.702 135.614 541.147 135.895 535.915 135.399L528.483 134.695L532.904 140.114C534.245 141.778 534.614 142.046 537.277 141.456L537.719 142.536Z" fill="white"/>
<path d="M537.236 150.196L538.075 149.525C540.409 152.02 540.852 151.953 542.978 150.196L554.018 141.195C555.534 139.954 555.581 139.719 554.648 138.418L553.434 136.808L554.105 136.238C555.997 137.872 558.033 139.331 560.188 140.598L545.131 152.872C543.011 154.603 542.877 155.045 544.862 157.849L544.024 158.52L537.236 150.196Z" fill="white"/>
<path d="M508.596 110.204L507.134 112.297C505.685 114.37 505.719 114.678 508.066 116.67L507.462 117.542L499.112 111.687L499.722 110.821C502.694 112.559 502.995 112.391 504.417 110.365L505.866 108.293L497.67 102.545L498.341 101.572C504.645 99.2783 510.897 97.1052 516.987 95.207L518.402 96.1997L509.683 108.662L512.708 110.781L511.628 112.324L508.596 110.204ZM513.184 97.8564L513.123 97.8094C509.387 99.0033 505.296 100.492 500.782 102.424L506.953 106.743L513.184 97.8564Z" fill="white"/>
<path d="M35.9911 374.476C34.6497 369.781 38.0771 365.851 42.9868 364.476C49.694 362.598 55.3952 365.147 58.7823 369.587C59.9066 371.145 60.8095 372.851 61.4652 374.657L60.4122 375.194C59.3267 372.732 57.5114 370.663 55.2118 369.267C52.9122 367.871 50.2392 367.214 47.5544 367.387L49.4928 369.399C50.0583 369.958 50.4755 370.65 50.7068 371.411C50.9939 372.288 51.0969 373.215 51.0093 374.134C50.9218 375.053 50.6455 375.943 50.1979 376.751C49.7503 377.558 49.1409 378.264 48.4079 378.825C47.6749 379.385 46.834 379.789 45.938 380.01C42.4636 380.989 37.3929 379.339 36.0247 374.483L35.9911 374.476ZM37.4265 374.718C38.171 377.401 41.4508 377.602 43.6374 376.992C46.763 376.113 48.9495 373.497 48.091 370.432C47.7729 369.321 47.1392 368.326 46.2666 367.568C45.4337 367.705 44.6095 367.891 43.7983 368.125C40.5185 369.043 36.4204 371.183 37.4064 374.664L37.4265 374.718Z" fill="white"/>
<path d="M82.0969 167.23C87.2548 173.938 92.3657 180.645 97.5973 187.439L96.5845 190.364L96.0614 190.417C92.1396 183.645 87.8193 177.112 83.1231 170.852L79.3335 178.291C78.1799 180.571 78.361 180.974 80.1183 182.952L79.6018 183.965C77.7305 182.577 76.114 181.55 74.7793 180.611L81.5603 167.298L82.0969 167.23Z" fill="white"/>
<path d="M364.565 47.0304C367.831 48.2444 369.26 50.934 368.75 53.6705C367.597 59.8077 359.608 60.9546 357.147 60.4918C355.729 60.2466 354.432 59.5391 353.458 58.4796C353.264 58.2845 353.127 58.0402 353.062 57.7731C352.997 57.5059 353.007 57.2261 353.089 56.9638C353.329 56.4578 353.75 56.0604 354.269 55.8504C354.422 55.7525 354.607 55.7167 354.785 55.7503C354.963 55.784 355.122 55.8846 355.229 56.0315C356.286 57.5078 357.846 58.5475 359.615 58.9558C362.15 59.432 364.31 57.876 365.021 54.2608C365.165 53.6364 365.178 52.989 365.059 52.3594C364.94 51.7299 364.692 51.1318 364.33 50.603C363.968 50.0742 363.501 49.6261 362.957 49.2871C362.413 48.9481 361.805 48.7255 361.171 48.6334C360.366 48.5018 359.547 48.4815 358.736 48.573V47.4127C362.311 46.9834 365.081 46.0712 365.585 43.3883C366.02 41.081 364.632 39.639 362.68 39.2701C360.601 38.8811 358.817 40.1152 357.583 41.3829L356.912 40.4439L359.058 38.378C359.803 37.8161 360.656 37.4155 361.564 37.2018C362.471 36.9882 363.414 36.9662 364.33 37.1372V37.1372C367.805 37.8079 369.642 40.3164 369.113 43.1335C369.026 43.6193 368.839 44.0817 368.563 44.4907C368.287 44.8997 367.928 45.2462 367.51 45.5078C366.558 46.0593 365.572 46.5499 364.558 46.9767L364.565 47.0304Z" fill="white"/>
<path d="M387.088 60.377C386.236 61.9734 385.505 63.6502 384.761 65.2398L370.461 62.5569L370.629 61.6715C373.083 60.035 375.659 58.3649 377.886 56.574C380.723 54.3271 383.621 51.7717 384.211 48.626C384.801 45.4803 383.5 43.4748 380.763 42.9651C378.174 42.4754 376.209 44.1791 374.908 45.487L374.17 44.5077L377.021 41.7846C377.818 41.217 378.72 40.8152 379.676 40.6032C380.631 40.3912 381.619 40.3733 382.581 40.5505C386.028 41.2212 388.617 44.1791 387.86 48.0827C387.263 51.2552 385.472 53.093 381.152 56.0911L374.975 60.3368L381.85 61.6313C383.956 62.027 384.405 62.0069 386.049 59.8203L387.088 60.377Z" fill="white"/>
<path d="M401.361 67.3283L401.737 66.3155C405.01 67.2948 405.366 66.9862 406.325 64.4509L411.322 51.1169C411.992 49.2791 411.925 49.0578 410.47 48.4005L408.612 47.6225L408.927 46.7773C411.388 47.2248 413.884 47.4493 416.386 47.4481L409.571 65.6448C408.612 68.207 408.712 68.6564 411.851 70.0783L411.469 71.0911L401.361 67.3283Z" fill="white"/>
<path d="M424.26 61.3201C425.807 61.2515 427.356 61.4028 428.861 61.7695C433.449 63.4865 434.71 67.4036 433.61 70.3279C432.805 72.4742 431.034 74.0437 428.11 75.023C425.76 75.7885 423.231 75.8143 420.866 75.0968C419.523 74.6005 418.379 73.6798 417.606 72.4742C417.264 71.77 417.177 71.4078 417.425 70.9718C417.571 70.7242 417.765 70.5082 417.995 70.3365C418.225 70.1649 418.488 70.0411 418.767 69.9724C418.951 69.9031 419.155 69.9076 419.337 69.9851C419.518 70.0625 419.662 70.207 419.739 70.3883C420.521 72.0395 421.892 73.3386 423.583 74.0303C426.507 75.1236 428.848 73.1315 429.807 70.5761C430.981 67.4371 429.807 64.5396 425.997 63.0908C424.701 62.647 423.343 62.4071 421.973 62.3798L427.479 52.0977L437.99 56.0348L438.11 56.3836L436.165 58.55L427.614 55.3507L424.26 61.3201Z" fill="white"/>
<path d="M444.864 82.1986L445.488 81.3066C448.412 83.0773 448.842 82.8895 450.391 80.6359L458.581 68.9787C459.707 67.3756 459.687 67.1409 458.433 66.1348L456.837 64.9409L457.36 64.2031C459.626 65.2634 461.983 66.1164 464.402 66.7519L453.235 82.648C451.659 84.8882 451.652 85.3309 454.328 87.5108L453.704 88.3961L444.864 82.1986Z" fill="white"/>
<path d="M478.146 76.4088C482.17 79.2259 481.989 84.4106 479.058 88.5892C475.034 94.2702 468.997 95.9202 463.591 94.6257C461.741 94.1239 459.969 93.3677 458.326 92.3788L458.809 91.2989C461.207 92.5198 463.921 92.9745 466.586 92.6014C469.25 92.2283 471.736 91.0455 473.706 89.2129L470.922 88.8642C470.118 88.7861 469.347 88.5045 468.682 88.0459C467.905 87.548 467.239 86.895 466.725 86.1278C466.212 85.3606 465.862 84.4956 465.699 83.5871C465.535 82.6786 465.56 81.746 465.774 80.8479C465.987 79.9497 466.384 79.1052 466.938 78.3673C469.018 75.4162 473.974 73.4711 478.113 76.3552L478.146 76.4088ZM476.885 77.1332C474.625 75.5436 471.922 77.4619 470.634 79.2997C468.763 81.9825 468.729 85.3697 471.305 87.1941C472.254 87.8549 473.375 88.2254 474.531 88.2605C475.091 87.6212 475.613 86.9493 476.094 86.2483C478.052 83.4581 479.863 79.2192 476.912 77.1466L476.885 77.1332Z" fill="white"/>
<path d="M326.763 33.2894C332.565 33.504 334.423 39.9228 334.208 45.7246C334.007 51.191 331.673 57.7976 325.817 57.5763C319.962 57.3549 318.084 51.0971 318.298 45.1679C318.5 39.6747 320.861 33.0949 326.716 33.2894H326.763ZM326.642 34.6308C323.289 34.5101 322.236 40.0436 322.041 45.2551C321.847 50.4666 322.645 56.1744 325.918 56.2952C329.191 56.4159 330.278 50.8288 330.472 45.5636C330.667 40.2984 329.969 34.7515 326.669 34.6308H326.642Z" fill="white"/>
<path d="M272.35 248.794L312.508 309.832L312.952 298.001L277.005 244.492L272.35 248.794Z" fill="url(#paint19_radial_4047_687)"/>
<path d="M346.526 305.671L404.081 269.734L409.584 277.576L355.267 309.83L346.526 305.671Z" fill="url(#paint20_radial_4047_687)"/>
<path d="M307.95 336.969L249.183 379.529V387.109L312.952 342.477L307.95 336.969Z" fill="url(#paint21_radial_4047_687)"/>
<path d="M343.128 348.418L381.255 408.482L387.139 405.381L347.663 342.477L343.128 348.418Z" fill="url(#paint22_radial_4047_687)"/>
<path d="M413.983 279.226C419.225 279.226 423.475 274.976 423.475 269.734C423.475 264.492 419.225 260.242 413.983 260.242C408.741 260.242 404.491 264.492 404.491 269.734C404.491 274.976 408.741 279.226 413.983 279.226Z" fill="url(#paint23_radial_4047_687)"/>
<path d="M386.139 421.23C391.382 421.23 395.631 416.98 395.631 411.738C395.631 406.496 391.382 402.246 386.139 402.246C380.897 402.246 376.647 406.496 376.647 411.738C376.647 416.98 380.897 421.23 386.139 421.23Z" fill="url(#paint24_radial_4047_687)"/>
<path d="M243.492 396.601C248.734 396.601 252.984 392.351 252.984 387.109C252.984 381.867 248.734 377.617 243.492 377.617C238.25 377.617 234 381.867 234 387.109C234 392.351 238.25 396.601 243.492 396.601Z" fill="url(#paint25_radial_4047_687)"/>
<path d="M272.349 253.984C277.592 253.984 281.841 249.734 281.841 244.492C281.841 239.25 277.592 235 272.349 235C267.107 235 262.857 239.25 262.857 244.492C262.857 249.734 267.107 253.984 272.349 253.984Z" fill="url(#paint26_radial_4047_687)"/>
<path d="M329 360C346.121 360 360 346.121 360 329C360 311.879 346.121 298 329 298C311.879 298 298 311.879 298 329C298 346.121 311.879 360 329 360Z" fill="#B97F2B"/>
<path d="M329 351C341.15 351 351 341.15 351 329C351 316.85 341.15 307 329 307C316.85 307 307 316.85 307 329C307 341.15 316.85 351 329 351Z" fill="url(#paint27_radial_4047_687)"/>
<path d="M329.019 575.999C271.876 576.004 216.498 556.194 172.322 519.947C128.146 483.699 97.9048 433.255 86.7511 377.21C75.5974 321.166 84.2213 262.987 111.153 212.588C138.086 162.189 181.659 122.687 234.451 100.813C287.243 78.9386 345.985 76.0457 400.671 92.6269C455.356 109.208 502.601 144.237 534.354 191.747C566.108 239.256 580.407 296.305 574.814 353.175C569.221 410.044 544.082 463.215 503.682 503.628C480.8 526.641 453.581 544.887 423.6 557.31C393.619 569.732 361.472 576.085 329.019 575.999V575.999ZM329.019 87.1598C195.669 87.1598 87.1797 195.649 87.1797 329C87.1797 462.35 195.669 570.833 329.019 570.833C462.37 570.833 570.859 462.343 570.859 328.993C570.859 195.643 462.37 87.1531 329.019 87.1531V87.1598Z" fill="url(#paint28_linear_4047_687)"/>
<path d="M329.017 657.999C247.713 657.896 169.346 627.598 109.117 572.983C48.8884 518.369 11.091 443.331 3.05708 362.425C-4.97684 281.52 17.3254 200.514 65.6377 135.121C113.95 69.7285 184.828 24.6107 264.524 8.51971C344.219 -7.57129 427.05 6.51155 496.95 48.0364C566.849 89.5613 618.835 155.568 642.821 233.253C666.808 310.938 661.086 394.762 626.765 468.467C592.445 542.172 531.972 600.502 457.078 632.143C416.565 649.29 373.009 658.084 329.017 657.999V657.999ZM329.017 5.1708C150.457 5.1708 5.18477 150.443 5.18477 329.003C5.18477 507.563 150.437 652.835 329.017 652.835C507.597 652.835 652.849 507.563 652.849 329.003C652.849 150.443 507.557 5.1708 329.017 5.1708Z" fill="url(#paint29_linear_4047_687)"/>
</g>
<defs>
<linearGradient id="paint0_linear_4047_687" x1="508.197" y1="56.7812" x2="508.197" y2="151.112" gradientUnits="userSpaceOnUse">
<stop stop-color="#2C2B2A"/>
<stop offset="1" stop-color="#262626"/>
</linearGradient>
<linearGradient id="paint1_linear_4047_687" x1="178.007" y1="328.591" x2="479.182" y2="328.591" gradientUnits="userSpaceOnUse">
<stop offset="0.0335469" stop-color="#FBC926"/>
<stop offset="0.162185" stop-color="#FFFBCC"/>
<stop offset="0.196236" stop-color="#F8F0BB"/>
<stop offset="0.264338" stop-color="#E7D28E"/>
<stop offset="0.55" stop-color="#CCA246"/>
<stop offset="0.684303" stop-color="#C3922E"/>
<stop offset="0.915094" stop-color="#EED688"/>
<stop offset="1" stop-color="#FFFBCC"/>
</linearGradient>
<linearGradient id="paint2_linear_4047_687" x1="185.281" y1="32.9648" x2="185.281" y2="126.732" gradientUnits="userSpaceOnUse">
<stop stop-color="#2C2B2A"/>
<stop offset="1" stop-color="#262626"/>
</linearGradient>
<linearGradient id="paint3_linear_4047_687" x1="111.005" y1="95.7773" x2="111.005" y2="183.595" gradientUnits="userSpaceOnUse">
<stop stop-color="#2C2B2A"/>
<stop offset="1" stop-color="#262626"/>
</linearGradient>
<linearGradient id="paint4_linear_4047_687" x1="62.2266" y1="183.598" x2="62.2266" y2="259.148" gradientUnits="userSpaceOnUse">
<stop stop-color="#2C2B2A"/>
<stop offset="1" stop-color="#262626"/>
</linearGradient>
<linearGradient id="paint5_linear_4047_687" x1="44.4914" y1="291.375" x2="44.4914" y2="348.447" gradientUnits="userSpaceOnUse">
<stop stop-color="#2C2B2A"/>
<stop offset="1" stop-color="#262626"/>
</linearGradient>
<linearGradient id="paint6_linear_4047_687" x1="56.9174" y1="383.129" x2="56.9174" y2="454.628" gradientUnits="userSpaceOnUse">
<stop stop-color="#2C2B2A"/>
<stop offset="1" stop-color="#262626"/>
</linearGradient>
<linearGradient id="paint7_linear_4047_687" x1="99.7299" y1="459.043" x2="99.7299" y2="547.015" gradientUnits="userSpaceOnUse">
<stop stop-color="#2C2B2A"/>
<stop offset="1" stop-color="#262626"/>
</linearGradient>
<linearGradient id="paint8_linear_4047_687" x1="168.586" y1="521.609" x2="168.586" y2="614.263" gradientUnits="userSpaceOnUse">
<stop stop-color="#2C2B2A"/>
<stop offset="1" stop-color="#262626"/>
</linearGradient>
<linearGradient id="paint9_linear_4047_687" x1="256.935" y1="560.402" x2="256.935" y2="651.238" gradientUnits="userSpaceOnUse">
<stop stop-color="#2C2B2A"/>
<stop offset="1" stop-color="#262626"/>
</linearGradient>
<linearGradient id="paint10_linear_4047_687" x1="361.775" y1="569.633" x2="361.775" y2="655.445" gradientUnits="userSpaceOnUse">
<stop stop-color="#2C2B2A"/>
<stop offset="1" stop-color="#262626"/>
</linearGradient>
<linearGradient id="paint11_linear_4047_687" x1="453.416" y1="540.402" x2="453.416" y2="634.746" gradientUnits="userSpaceOnUse">
<stop stop-color="#2C2B2A"/>
<stop offset="1" stop-color="#262626"/>
</linearGradient>
<linearGradient id="paint12_linear_4047_687" x1="531.86" y1="487.348" x2="531.86" y2="579.8" gradientUnits="userSpaceOnUse">
<stop stop-color="#2C2B2A"/>
<stop offset="1" stop-color="#262626"/>
</linearGradient>
<linearGradient id="paint13_linear_4047_687" x1="586.239" y1="418.898" x2="586.239" y2="497.186" gradientUnits="userSpaceOnUse">
<stop stop-color="#2C2B2A"/>
<stop offset="1" stop-color="#262626"/>
</linearGradient>
<linearGradient id="paint14_linear_4047_687" x1="612.045" y1="337.473" x2="612.045" y2="392.116" gradientUnits="userSpaceOnUse">
<stop stop-color="#2C2B2A"/>
<stop offset="1" stop-color="#262626"/>
</linearGradient>
<linearGradient id="paint15_linear_4047_687" x1="607.306" y1="229.402" x2="607.306" y2="296.025" gradientUnits="userSpaceOnUse">
<stop stop-color="#2C2B2A"/>
<stop offset="1" stop-color="#262626"/>
</linearGradient>
<linearGradient id="paint16_linear_4047_687" x1="570.742" y1="130.469" x2="570.742" y2="216.395" gradientUnits="userSpaceOnUse">
<stop stop-color="#2C2B2A"/>
<stop offset="1" stop-color="#262626"/>
</linearGradient>
<linearGradient id="paint17_linear_4047_687" x1="423.32" y1="12.0469" x2="423.32" y2="103.949" gradientUnits="userSpaceOnUse">
<stop stop-color="#2C2B2A"/>
<stop offset="1" stop-color="#262626"/>
</linearGradient>
<linearGradient id="paint18_linear_4047_687" x1="272.589" y1="4.19922" x2="272.589" y2="93.278" gradientUnits="userSpaceOnUse">
<stop stop-color="#2C2B2A"/>
<stop offset="1" stop-color="#262626"/>
</linearGradient>
<radialGradient id="paint19_radial_4047_687" cx="0" cy="0" r="1" gradientUnits="userSpaceOnUse" gradientTransform="translate(292.654 277.162) scale(27.1954 27.1954)">
<stop stop-color="#FFFBCC"/>
<stop offset="0.12" stop-color="#F8F0BB"/>
<stop offset="0.36" stop-color="#E7D28E"/>
<stop offset="0.69" stop-color="#CCA246"/>
<stop offset="0.79" stop-color="#C3922E"/>
</radialGradient>
<radialGradient id="paint20_radial_4047_687" cx="0" cy="0" r="1" gradientUnits="userSpaceOnUse" gradientTransform="translate(378.052 289.782) scale(26.4215 26.4215)">
<stop stop-color="#FFFBCC"/>
<stop offset="0.12" stop-color="#F8F0BB"/>
<stop offset="0.36" stop-color="#E7D28E"/>
<stop offset="0.69" stop-color="#CCA246"/>
<stop offset="0.79" stop-color="#C3922E"/>
</radialGradient>
<radialGradient id="paint21_radial_4047_687" cx="0" cy="0" r="1" gradientUnits="userSpaceOnUse" gradientTransform="translate(281.067 362.042) scale(28.6807 28.6807)">
<stop stop-color="#FFFBCC"/>
<stop offset="0.12" stop-color="#F8F0BB"/>
<stop offset="0.36" stop-color="#E7D28E"/>
<stop offset="0.69" stop-color="#CCA246"/>
<stop offset="0.79" stop-color="#C3922E"/>
</radialGradient>
<radialGradient id="paint22_radial_4047_687" cx="0" cy="0" r="1" gradientUnits="userSpaceOnUse" gradientTransform="translate(365.134 375.482) scale(28.049 28.049)">
<stop stop-color="#FFFBCC"/>
<stop offset="0.12" stop-color="#F8F0BB"/>
<stop offset="0.36" stop-color="#E7D28E"/>
<stop offset="0.69" stop-color="#CCA246"/>
<stop offset="0.79" stop-color="#C3922E"/>
</radialGradient>
<radialGradient id="paint23_radial_4047_687" cx="0" cy="0" r="1" gradientUnits="userSpaceOnUse" gradientTransform="translate(413.983 269.734) scale(9.49194)">
<stop stop-color="#FFFBCC"/>
<stop offset="0.12" stop-color="#F8F0BB"/>
<stop offset="0.36" stop-color="#E7D28E"/>
<stop offset="0.69" stop-color="#CCA246"/>
<stop offset="0.79" stop-color="#C3922E"/>
</radialGradient>
<radialGradient id="paint24_radial_4047_687" cx="0" cy="0" r="1" gradientUnits="userSpaceOnUse" gradientTransform="translate(386.139 411.738) scale(9.49194 9.49196)">
<stop stop-color="#FFFBCC"/>
<stop offset="0.12" stop-color="#F8F0BB"/>
<stop offset="0.36" stop-color="#E7D28E"/>
<stop offset="0.69" stop-color="#CCA246"/>
<stop offset="0.79" stop-color="#C3922E"/>
</radialGradient>
<radialGradient id="paint25_radial_4047_687" cx="0" cy="0" r="1" gradientUnits="userSpaceOnUse" gradientTransform="translate(243.492 387.109) scale(9.49195 9.49194)">
<stop stop-color="#FFFBCC"/>
<stop offset="0.12" stop-color="#F8F0BB"/>
<stop offset="0.36" stop-color="#E7D28E"/>
<stop offset="0.69" stop-color="#CCA246"/>
<stop offset="0.79" stop-color="#C3922E"/>
</radialGradient>
<radialGradient id="paint26_radial_4047_687" cx="0" cy="0" r="1" gradientUnits="userSpaceOnUse" gradientTransform="translate(272.349 244.492) scale(9.49194)">
<stop stop-color="#FFFBCC"/>
<stop offset="0.12" stop-color="#F8F0BB"/>
<stop offset="0.36" stop-color="#E7D28E"/>
<stop offset="0.69" stop-color="#CCA246"/>
<stop offset="0.79" stop-color="#C3922E"/>
</radialGradient>
<radialGradient id="paint27_radial_4047_687" cx="0" cy="0" r="1" gradientUnits="userSpaceOnUse" gradientTransform="translate(329 329) scale(22)">
<stop stop-color="#FFFBCC"/>
<stop offset="0.12" stop-color="#F8F0BB"/>
<stop offset="0.36" stop-color="#E7D28E"/>
<stop offset="0.69" stop-color="#CCA246"/>
<stop offset="0.79" stop-color="#C3922E"/>
</radialGradient>
<linearGradient id="paint28_linear_4047_687" x1="81.9998" y1="328.993" x2="576.006" y2="328.993" gradientUnits="userSpaceOnUse">
<stop offset="0.01" stop-color="#FBC926"/>
<stop offset="0.25" stop-color="#FFFBCC"/>
<stop offset="0.3" stop-color="#F8F0BB"/>
<stop offset="0.41" stop-color="#E7D28E"/>
<stop offset="0.55" stop-color="#CCA246"/>
<stop offset="0.6" stop-color="#C3922E"/>
<stop offset="0.87" stop-color="#EED688"/>
<stop offset="1" stop-color="#FFFBCC"/>
</linearGradient>
<linearGradient id="paint29_linear_4047_687" x1="7.2778e-05" y1="329.003" x2="658" y2="329.003" gradientUnits="userSpaceOnUse">
<stop offset="0.01" stop-color="#FBC926"/>
<stop offset="0.25" stop-color="#FFFBCC"/>
<stop offset="0.3" stop-color="#F8F0BB"/>
<stop offset="0.41" stop-color="#E7D28E"/>
<stop offset="0.55" stop-color="#CCA246"/>
<stop offset="0.6" stop-color="#C3922E"/>
<stop offset="0.87" stop-color="#EED688"/>
<stop offset="1" stop-color="#FFFBCC"/>
</linearGradient>
<clipPath id="clip0_4047_687">
<rect width="658" height="658" fill="white"/>
</clipPath>
</defs>
</svg>
